<svg width="290" height="237" viewBox="0 0 290 237" fill="none" xmlns="http://www.w3.org/2000/svg">
<rect x="1" y="1" width="288" height="235" rx="6" fill="white"/>
<path d="M32.4209 103.338V100.804H46.3223V102.854C44.9551 104.31 43.5977 106.243 42.25 108.655C40.9121 111.067 39.877 113.548 39.1445 116.097C38.6172 117.894 38.2803 119.861 38.1338 122H35.4238C35.4531 120.311 35.7852 118.27 36.4199 115.877C37.0547 113.484 37.9629 111.18 39.1445 108.963C40.3359 106.736 41.6006 104.861 42.9385 103.338H32.4209ZM48.9443 116.375L51.7129 116.141C51.918 117.488 52.3916 118.504 53.1338 119.188C53.8857 119.861 54.7891 120.198 55.8438 120.198C57.1133 120.198 58.1875 119.72 59.0664 118.763C59.9453 117.806 60.3848 116.536 60.3848 114.954C60.3848 113.45 59.96 112.264 59.1104 111.395C58.2705 110.525 57.167 110.091 55.7998 110.091C54.9502 110.091 54.1836 110.286 53.5 110.677C52.8164 111.058 52.2793 111.556 51.8887 112.171L49.4131 111.849L51.4932 100.818H62.1719V103.338H53.6025L52.4453 109.109C53.7344 108.211 55.0869 107.762 56.5029 107.762C58.3779 107.762 59.96 108.411 61.249 109.71C62.5381 111.009 63.1826 112.679 63.1826 114.72C63.1826 116.663 62.6162 118.343 61.4834 119.759C60.1064 121.497 58.2266 122.366 55.8438 122.366C53.8906 122.366 52.2939 121.819 51.0537 120.726C49.8232 119.632 49.1201 118.182 48.9443 116.375ZM66.1416 105.682C66.1416 104.148 66.5273 102.845 67.2988 101.771C68.0703 100.696 69.1885 100.159 70.6533 100.159C72.001 100.159 73.1143 100.643 73.9932 101.609C74.8818 102.566 75.3262 103.978 75.3262 105.843C75.3262 107.659 74.877 109.061 73.9785 110.047C73.0898 111.023 71.9912 111.512 70.6826 111.512C69.3838 111.512 68.2998 111.028 67.4307 110.062C66.5713 109.095 66.1416 107.635 66.1416 105.682ZM70.7266 101.976C70.0723 101.976 69.5254 102.259 69.0859 102.825C68.6562 103.392 68.4414 104.432 68.4414 105.945C68.4414 107.322 68.6611 108.294 69.1006 108.86C69.54 109.417 70.082 109.695 70.7266 109.695C71.3906 109.695 71.9375 109.412 72.3672 108.846C72.8066 108.279 73.0264 107.244 73.0264 105.74C73.0264 104.354 72.8066 103.382 72.3672 102.825C71.9277 102.259 71.3809 101.976 70.7266 101.976ZM70.7412 122.791L82.4893 100.159H84.6279L72.9238 122.791H70.7412ZM80.0283 116.961C80.0283 115.418 80.4141 114.114 81.1855 113.05C81.957 111.976 83.0801 111.438 84.5547 111.438C85.9023 111.438 87.0156 111.922 87.8945 112.889C88.7832 113.846 89.2275 115.257 89.2275 117.122C89.2275 118.938 88.7783 120.34 87.8799 121.326C86.9912 122.303 85.8877 122.791 84.5693 122.791C83.2705 122.791 82.1865 122.308 81.3174 121.341C80.458 120.364 80.0283 118.904 80.0283 116.961ZM84.6279 113.255C83.9639 113.255 83.4121 113.538 82.9727 114.104C82.543 114.671 82.3281 115.711 82.3281 117.225C82.3281 118.592 82.5479 119.559 82.9873 120.125C83.4268 120.691 83.9688 120.975 84.6133 120.975C85.2871 120.975 85.8389 120.691 86.2686 120.125C86.708 119.559 86.9277 118.523 86.9277 117.02C86.9277 115.633 86.708 114.661 86.2686 114.104C85.8291 113.538 85.2822 113.255 84.6279 113.255Z" fill="black" fill-opacity="0.5"/>
<rect x="31" y="139" width="228" height="10" rx="5" fill="#E5E5E5"/>
<rect x="31" y="139" width="154" height="10" rx="5" fill="#08B54F"/>
<path d="M32.4414 43V30.1152H34.1465V35.4062H40.8438V30.1152H42.5488V43H40.8438V36.9268H34.1465V43H32.4414ZM44.6055 38.333C44.6055 36.6045 45.0859 35.3242 46.0469 34.4922C46.8496 33.8008 47.8281 33.4551 48.9824 33.4551C50.2656 33.4551 51.3145 33.877 52.1289 34.7207C52.9434 35.5586 53.3506 36.7188 53.3506 38.2012C53.3506 39.4023 53.1689 40.3486 52.8057 41.04C52.4482 41.7256 51.9238 42.2588 51.2324 42.6396C50.5469 43.0205 49.7969 43.2109 48.9824 43.2109C47.6758 43.2109 46.6182 42.792 45.8096 41.9541C45.0068 41.1162 44.6055 39.9092 44.6055 38.333ZM46.2314 38.333C46.2314 39.5283 46.4922 40.4248 47.0137 41.0225C47.5352 41.6143 48.1914 41.9102 48.9824 41.9102C49.7676 41.9102 50.4209 41.6113 50.9424 41.0137C51.4639 40.416 51.7246 39.5049 51.7246 38.2803C51.7246 37.126 51.4609 36.2529 50.9336 35.6611C50.4121 35.0635 49.7617 34.7646 48.9824 34.7646C48.1914 34.7646 47.5352 35.0605 47.0137 35.6523C46.4922 36.2441 46.2314 37.1377 46.2314 38.333ZM56.9365 43L54.0801 33.666H55.7148L57.2002 39.0537L57.7539 41.0576C57.7773 40.958 57.9385 40.3164 58.2373 39.1328L59.7227 33.666H61.3486L62.7461 39.0801L63.2119 40.8643L63.748 39.0625L65.3477 33.666H66.8857L63.9678 43H62.3242L60.8389 37.4102L60.4785 35.8193L58.5889 43H56.9365ZM73.2314 46.5771V33.666H74.6729V34.8789C75.0127 34.4043 75.3965 34.0498 75.8242 33.8154C76.252 33.5752 76.7705 33.4551 77.3799 33.4551C78.1768 33.4551 78.8799 33.6602 79.4893 34.0703C80.0986 34.4805 80.5586 35.0605 80.8691 35.8105C81.1797 36.5547 81.335 37.3721 81.335 38.2627C81.335 39.2178 81.1621 40.0791 80.8164 40.8467C80.4766 41.6084 79.9785 42.1943 79.3223 42.6045C78.6719 43.0088 77.9863 43.2109 77.2656 43.2109C76.7383 43.2109 76.2637 43.0996 75.8418 42.877C75.4258 42.6543 75.083 42.373 74.8135 42.0332V46.5771H73.2314ZM74.6641 38.3857C74.6641 39.5869 74.9072 40.4746 75.3936 41.0488C75.8799 41.623 76.4688 41.9102 77.1602 41.9102C77.8633 41.9102 78.4639 41.6143 78.9619 41.0225C79.4658 40.4248 79.7178 39.502 79.7178 38.2539C79.7178 37.0645 79.4717 36.1738 78.9795 35.582C78.4932 34.9902 77.9102 34.6943 77.2305 34.6943C76.5566 34.6943 75.959 35.0107 75.4375 35.6436C74.9219 36.2705 74.6641 37.1846 74.6641 38.3857ZM83.2334 43V33.666H84.6572V35.0811C85.0205 34.4189 85.3545 33.9824 85.6592 33.7715C85.9697 33.5605 86.3096 33.4551 86.6787 33.4551C87.2119 33.4551 87.7539 33.625 88.3047 33.9648L87.7598 35.4326C87.373 35.2041 86.9863 35.0898 86.5996 35.0898C86.2539 35.0898 85.9434 35.1953 85.668 35.4062C85.3926 35.6113 85.1963 35.8984 85.0791 36.2676C84.9033 36.8301 84.8154 37.4453 84.8154 38.1133V43H83.2334ZM88.6562 38.333C88.6562 36.6045 89.1367 35.3242 90.0977 34.4922C90.9004 33.8008 91.8789 33.4551 93.0332 33.4551C94.3164 33.4551 95.3652 33.877 96.1797 34.7207C96.9941 35.5586 97.4014 36.7188 97.4014 38.2012C97.4014 39.4023 97.2197 40.3486 96.8564 41.04C96.499 41.7256 95.9746 42.2588 95.2832 42.6396C94.5977 43.0205 93.8477 43.2109 93.0332 43.2109C91.7266 43.2109 90.6689 42.792 89.8604 41.9541C89.0576 41.1162 88.6562 39.9092 88.6562 38.333ZM90.2822 38.333C90.2822 39.5283 90.543 40.4248 91.0645 41.0225C91.5859 41.6143 92.2422 41.9102 93.0332 41.9102C93.8184 41.9102 94.4717 41.6113 94.9932 41.0137C95.5146 40.416 95.7754 39.5049 95.7754 38.2803C95.7754 37.126 95.5117 36.2529 94.9844 35.6611C94.4629 35.0635 93.8125 34.7646 93.0332 34.7646C92.2422 34.7646 91.5859 35.0605 91.0645 35.6523C90.543 36.2441 90.2822 37.1377 90.2822 38.333ZM99.2646 43V33.666H100.68V34.9756C100.973 34.5186 101.362 34.1523 101.849 33.877C102.335 33.5957 102.889 33.4551 103.51 33.4551C104.201 33.4551 104.767 33.5986 105.206 33.8857C105.651 34.1729 105.965 34.5742 106.146 35.0898C106.885 34 107.846 33.4551 109.029 33.4551C109.955 33.4551 110.667 33.7129 111.165 34.2285C111.663 34.7383 111.912 35.5264 111.912 36.5928V43H110.339V37.1201C110.339 36.4873 110.286 36.0332 110.181 35.7578C110.081 35.4766 109.896 35.251 109.627 35.0811C109.357 34.9111 109.041 34.8262 108.678 34.8262C108.021 34.8262 107.477 35.0459 107.043 35.4854C106.609 35.9189 106.393 36.6162 106.393 37.5771V43H104.811V36.9355C104.811 36.2324 104.682 35.7051 104.424 35.3535C104.166 35.002 103.744 34.8262 103.158 34.8262C102.713 34.8262 102.3 34.9434 101.919 35.1777C101.544 35.4121 101.271 35.7549 101.102 36.2061C100.932 36.6572 100.847 37.3076 100.847 38.1572V43H99.2646ZM113.67 38.333C113.67 36.6045 114.15 35.3242 115.111 34.4922C115.914 33.8008 116.893 33.4551 118.047 33.4551C119.33 33.4551 120.379 33.877 121.193 34.7207C122.008 35.5586 122.415 36.7188 122.415 38.2012C122.415 39.4023 122.233 40.3486 121.87 41.04C121.513 41.7256 120.988 42.2588 120.297 42.6396C119.611 43.0205 118.861 43.2109 118.047 43.2109C116.74 43.2109 115.683 42.792 114.874 41.9541C114.071 41.1162 113.67 39.9092 113.67 38.333ZM115.296 38.333C115.296 39.5283 115.557 40.4248 116.078 41.0225C116.6 41.6143 117.256 41.9102 118.047 41.9102C118.832 41.9102 119.485 41.6113 120.007 41.0137C120.528 40.416 120.789 39.5049 120.789 38.2803C120.789 37.126 120.525 36.2529 119.998 35.6611C119.477 35.0635 118.826 34.7646 118.047 34.7646C117.256 34.7646 116.6 35.0605 116.078 35.6523C115.557 36.2441 115.296 37.1377 115.296 38.333ZM127.732 41.585L127.961 42.9824C127.516 43.0762 127.117 43.123 126.766 43.123C126.191 43.123 125.746 43.0322 125.43 42.8506C125.113 42.6689 124.891 42.4316 124.762 42.1387C124.633 41.8398 124.568 41.2158 124.568 40.2666V34.8965H123.408V33.666H124.568V31.3545L126.142 30.4053V33.666H127.732V34.8965H126.142V40.3545C126.142 40.8057 126.168 41.0957 126.221 41.2246C126.279 41.3535 126.37 41.4561 126.493 41.5322C126.622 41.6084 126.804 41.6465 127.038 41.6465C127.214 41.6465 127.445 41.626 127.732 41.585ZM129.297 31.9346V30.1152H130.879V31.9346H129.297ZM129.297 43V33.666H130.879V43H129.297ZM132.707 38.333C132.707 36.6045 133.188 35.3242 134.148 34.4922C134.951 33.8008 135.93 33.4551 137.084 33.4551C138.367 33.4551 139.416 33.877 140.23 34.7207C141.045 35.5586 141.452 36.7188 141.452 38.2012C141.452 39.4023 141.271 40.3486 140.907 41.04C140.55 41.7256 140.025 42.2588 139.334 42.6396C138.648 43.0205 137.898 43.2109 137.084 43.2109C135.777 43.2109 134.72 42.792 133.911 41.9541C133.108 41.1162 132.707 39.9092 132.707 38.333ZM134.333 38.333C134.333 39.5283 134.594 40.4248 135.115 41.0225C135.637 41.6143 136.293 41.9102 137.084 41.9102C137.869 41.9102 138.522 41.6113 139.044 41.0137C139.565 40.416 139.826 39.5049 139.826 38.2803C139.826 37.126 139.562 36.2529 139.035 35.6611C138.514 35.0635 137.863 34.7646 137.084 34.7646C136.293 34.7646 135.637 35.0605 135.115 35.6523C134.594 36.2441 134.333 37.1377 134.333 38.333ZM143.315 43V33.666H144.739V34.9932C145.425 33.9678 146.415 33.4551 147.71 33.4551C148.272 33.4551 148.788 33.5576 149.257 33.7627C149.731 33.9619 150.086 34.2256 150.32 34.5537C150.555 34.8818 150.719 35.2715 150.812 35.7227C150.871 36.0156 150.9 36.5283 150.9 37.2607V43H149.318V37.3223C149.318 36.6777 149.257 36.1973 149.134 35.8809C149.011 35.5586 148.791 35.3037 148.475 35.1162C148.164 34.9229 147.798 34.8262 147.376 34.8262C146.702 34.8262 146.119 35.04 145.627 35.4678C145.141 35.8955 144.897 36.707 144.897 37.9023V43H143.315ZM164.734 39.9941L166.369 40.1963C166.111 41.1514 165.634 41.8926 164.937 42.4199C164.239 42.9473 163.349 43.2109 162.265 43.2109C160.899 43.2109 159.815 42.792 159.013 41.9541C158.216 41.1104 157.817 39.9297 157.817 38.4121C157.817 36.8418 158.222 35.623 159.03 34.7559C159.839 33.8887 160.888 33.4551 162.177 33.4551C163.425 33.4551 164.444 33.8799 165.235 34.7295C166.026 35.5791 166.422 36.7744 166.422 38.3154C166.422 38.4092 166.419 38.5498 166.413 38.7373H159.452C159.511 39.7627 159.801 40.5479 160.322 41.0928C160.844 41.6377 161.494 41.9102 162.273 41.9102C162.854 41.9102 163.349 41.7578 163.759 41.4531C164.169 41.1484 164.494 40.6621 164.734 39.9941ZM159.54 37.4365H164.752C164.682 36.6514 164.482 36.0625 164.154 35.6699C163.65 35.0605 162.997 34.7559 162.194 34.7559C161.468 34.7559 160.855 34.999 160.357 35.4854C159.865 35.9717 159.593 36.6221 159.54 37.4365ZM167.31 43L170.72 38.1484L167.564 33.666H169.542L170.975 35.8545C171.244 36.2705 171.461 36.6191 171.625 36.9004C171.883 36.5137 172.12 36.1709 172.337 35.8721L173.91 33.666H175.8L172.574 38.0605L176.046 43H174.104L172.188 40.0996L171.678 39.3174L169.226 43H167.31ZM183.455 39.5811L185.011 39.7832C184.841 40.8555 184.404 41.6963 183.701 42.3057C183.004 42.9092 182.146 43.2109 181.126 43.2109C179.849 43.2109 178.82 42.7949 178.041 41.9629C177.268 41.125 176.881 39.9268 176.881 38.3682C176.881 37.3604 177.048 36.4785 177.382 35.7227C177.716 34.9668 178.223 34.4014 178.902 34.0264C179.588 33.6455 180.332 33.4551 181.135 33.4551C182.148 33.4551 182.978 33.7129 183.622 34.2285C184.267 34.7383 184.68 35.4648 184.861 36.4082L183.323 36.6455C183.177 36.0186 182.916 35.5469 182.541 35.2305C182.172 34.9141 181.724 34.7559 181.196 34.7559C180.399 34.7559 179.752 35.043 179.254 35.6172C178.756 36.1855 178.507 37.0879 178.507 38.3242C178.507 39.5781 178.747 40.4893 179.228 41.0576C179.708 41.626 180.335 41.9102 181.108 41.9102C181.729 41.9102 182.248 41.7197 182.664 41.3389C183.08 40.958 183.344 40.3721 183.455 39.5811ZM192.754 39.9941L194.389 40.1963C194.131 41.1514 193.653 41.8926 192.956 42.4199C192.259 42.9473 191.368 43.2109 190.284 43.2109C188.919 43.2109 187.835 42.792 187.032 41.9541C186.235 41.1104 185.837 39.9297 185.837 38.4121C185.837 36.8418 186.241 35.623 187.05 34.7559C187.858 33.8887 188.907 33.4551 190.196 33.4551C191.444 33.4551 192.464 33.8799 193.255 34.7295C194.046 35.5791 194.441 36.7744 194.441 38.3154C194.441 38.4092 194.438 38.5498 194.433 38.7373H187.472C187.53 39.7627 187.82 40.5479 188.342 41.0928C188.863 41.6377 189.514 41.9102 190.293 41.9102C190.873 41.9102 191.368 41.7578 191.778 41.4531C192.188 41.1484 192.514 40.6621 192.754 39.9941ZM187.56 37.4365H192.771C192.701 36.6514 192.502 36.0625 192.174 35.6699C191.67 35.0605 191.017 34.7559 190.214 34.7559C189.487 34.7559 188.875 34.999 188.377 35.4854C187.885 35.9717 187.612 36.6221 187.56 37.4365ZM196.349 43V30.1152H197.931V43H196.349ZM200.356 43V30.1152H201.938V43H200.356ZM210.789 39.9941L212.424 40.1963C212.166 41.1514 211.688 41.8926 210.991 42.4199C210.294 42.9473 209.403 43.2109 208.319 43.2109C206.954 43.2109 205.87 42.792 205.067 41.9541C204.271 41.1104 203.872 39.9297 203.872 38.4121C203.872 36.8418 204.276 35.623 205.085 34.7559C205.894 33.8887 206.942 33.4551 208.231 33.4551C209.479 33.4551 210.499 33.8799 211.29 34.7295C212.081 35.5791 212.477 36.7744 212.477 38.3154C212.477 38.4092 212.474 38.5498 212.468 38.7373H205.507C205.565 39.7627 205.855 40.5479 206.377 41.0928C206.898 41.6377 207.549 41.9102 208.328 41.9102C208.908 41.9102 209.403 41.7578 209.813 41.4531C210.224 41.1484 210.549 40.6621 210.789 39.9941ZM205.595 37.4365H210.807C210.736 36.6514 210.537 36.0625 210.209 35.6699C209.705 35.0605 209.052 34.7559 208.249 34.7559C207.522 34.7559 206.91 34.999 206.412 35.4854C205.92 35.9717 205.647 36.6221 205.595 37.4365ZM214.419 43V33.666H215.843V34.9932C216.528 33.9678 217.519 33.4551 218.813 33.4551C219.376 33.4551 219.892 33.5576 220.36 33.7627C220.835 33.9619 221.189 34.2256 221.424 34.5537C221.658 34.8818 221.822 35.2715 221.916 35.7227C221.975 36.0156 222.004 36.5283 222.004 37.2607V43H220.422V37.3223C220.422 36.6777 220.36 36.1973 220.237 35.8809C220.114 35.5586 219.895 35.3037 219.578 35.1162C219.268 34.9229 218.901 34.8262 218.479 34.8262C217.806 34.8262 217.223 35.04 216.73 35.4678C216.244 35.8955 216.001 36.707 216.001 37.9023V43H214.419ZM227.893 41.585L228.121 42.9824C227.676 43.0762 227.277 43.123 226.926 43.123C226.352 43.123 225.906 43.0322 225.59 42.8506C225.273 42.6689 225.051 42.4316 224.922 42.1387C224.793 41.8398 224.729 41.2158 224.729 40.2666V34.8965H223.568V33.666H224.729V31.3545L226.302 30.4053V33.666H227.893V34.8965H226.302V40.3545C226.302 40.8057 226.328 41.0957 226.381 41.2246C226.439 41.3535 226.53 41.4561 226.653 41.5322C226.782 41.6084 226.964 41.6465 227.198 41.6465C227.374 41.6465 227.605 41.626 227.893 41.585ZM234.388 46.5947L234.212 45.1094C234.558 45.2031 234.859 45.25 235.117 45.25C235.469 45.25 235.75 45.1914 235.961 45.0742C236.172 44.957 236.345 44.793 236.479 44.582C236.579 44.4238 236.74 44.0312 236.963 43.4043C236.992 43.3164 237.039 43.1875 237.104 43.0176L233.562 33.666H235.267L237.209 39.0713C237.461 39.7568 237.687 40.4775 237.886 41.2334C238.067 40.5068 238.284 39.7979 238.536 39.1064L240.531 33.666H242.113L238.562 43.1582C238.182 44.1836 237.886 44.8896 237.675 45.2764C237.394 45.7979 237.071 46.1787 236.708 46.4189C236.345 46.665 235.911 46.7881 235.407 46.7881C235.103 46.7881 234.763 46.7236 234.388 46.5947ZM249.848 39.9941L251.482 40.1963C251.225 41.1514 250.747 41.8926 250.05 42.4199C249.353 42.9473 248.462 43.2109 247.378 43.2109C246.013 43.2109 244.929 42.792 244.126 41.9541C243.329 41.1104 242.931 39.9297 242.931 38.4121C242.931 36.8418 243.335 35.623 244.144 34.7559C244.952 33.8887 246.001 33.4551 247.29 33.4551C248.538 33.4551 249.558 33.8799 250.349 34.7295C251.14 35.5791 251.535 36.7744 251.535 38.3154C251.535 38.4092 251.532 38.5498 251.526 38.7373H244.565C244.624 39.7627 244.914 40.5479 245.436 41.0928C245.957 41.6377 246.607 41.9102 247.387 41.9102C247.967 41.9102 248.462 41.7578 248.872 41.4531C249.282 41.1484 249.607 40.6621 249.848 39.9941ZM244.653 37.4365H249.865C249.795 36.6514 249.596 36.0625 249.268 35.6699C248.764 35.0605 248.11 34.7559 247.308 34.7559C246.581 34.7559 245.969 34.999 245.471 35.4854C244.979 35.9717 244.706 36.6221 244.653 37.4365ZM256.932 41.585L257.16 42.9824C256.715 43.0762 256.316 43.123 255.965 43.123C255.391 43.123 254.945 43.0322 254.629 42.8506C254.312 42.6689 254.09 42.4316 253.961 42.1387C253.832 41.8398 253.768 41.2158 253.768 40.2666V34.8965H252.607V33.666H253.768V31.3545L255.341 30.4053V33.666H256.932V34.8965H255.341V40.3545C255.341 40.8057 255.367 41.0957 255.42 41.2246C255.479 41.3535 255.569 41.4561 255.692 41.5322C255.821 41.6084 256.003 41.6465 256.237 41.6465C256.413 41.6465 256.645 41.626 256.932 41.585ZM38.2773 62.8486C37.6914 63.3467 37.126 63.6982 36.5811 63.9033C36.042 64.1084 35.4619 64.2109 34.8408 64.2109C33.8154 64.2109 33.0273 63.9619 32.4766 63.4639C31.9258 62.96 31.6504 62.3184 31.6504 61.5391C31.6504 61.082 31.7529 60.666 31.958 60.291C32.1689 59.9102 32.4414 59.6055 32.7754 59.377C33.1152 59.1484 33.4961 58.9756 33.918 58.8584C34.2285 58.7764 34.6973 58.6973 35.3242 58.6211C36.6016 58.4688 37.542 58.2871 38.1455 58.0762C38.1514 57.8594 38.1543 57.7217 38.1543 57.6631C38.1543 57.0186 38.0049 56.5645 37.7061 56.3008C37.3018 55.9434 36.7012 55.7646 35.9043 55.7646C35.1602 55.7646 34.6094 55.8965 34.252 56.1602C33.9004 56.418 33.6396 56.8779 33.4697 57.54L31.9229 57.3291C32.0635 56.667 32.2949 56.1338 32.6172 55.7295C32.9395 55.3193 33.4053 55.0059 34.0146 54.7891C34.624 54.5664 35.3301 54.4551 36.1328 54.4551C36.9297 54.4551 37.5771 54.5488 38.0752 54.7363C38.5732 54.9238 38.9395 55.1611 39.1738 55.4482C39.4082 55.7295 39.5723 56.0869 39.666 56.5205C39.7188 56.79 39.7451 57.2764 39.7451 57.9795V60.0889C39.7451 61.5596 39.7773 62.4912 39.8418 62.8838C39.9121 63.2705 40.0469 63.6426 40.2461 64H38.5938C38.4297 63.6719 38.3242 63.2881 38.2773 62.8486ZM38.1455 59.3154C37.5713 59.5498 36.71 59.749 35.5615 59.9131C34.9111 60.0068 34.4512 60.1123 34.1816 60.2295C33.9121 60.3467 33.7041 60.5195 33.5576 60.748C33.4111 60.9707 33.3379 61.2197 33.3379 61.4951C33.3379 61.917 33.4961 62.2686 33.8125 62.5498C34.1348 62.8311 34.6035 62.9717 35.2188 62.9717C35.8281 62.9717 36.3701 62.8398 36.8447 62.5762C37.3193 62.3066 37.668 61.9404 37.8906 61.4775C38.0605 61.1201 38.1455 60.5928 38.1455 59.8955V59.3154ZM45.6602 62.585L45.8887 63.9824C45.4434 64.0762 45.0449 64.123 44.6934 64.123C44.1191 64.123 43.6738 64.0322 43.3574 63.8506C43.041 63.6689 42.8184 63.4316 42.6895 63.1387C42.5605 62.8398 42.4961 62.2158 42.4961 61.2666V55.8965H41.3359V54.666H42.4961V52.3545L44.0693 51.4053V54.666H45.6602V55.8965H44.0693V61.3545C44.0693 61.8057 44.0957 62.0957 44.1484 62.2246C44.207 62.3535 44.2979 62.4561 44.4209 62.5322C44.5498 62.6084 44.7314 62.6465 44.9658 62.6465C45.1416 62.6465 45.373 62.626 45.6602 62.585ZM50.6699 62.585L50.8984 63.9824C50.4531 64.0762 50.0547 64.123 49.7031 64.123C49.1289 64.123 48.6836 64.0322 48.3672 63.8506C48.0508 63.6689 47.8281 63.4316 47.6992 63.1387C47.5703 62.8398 47.5059 62.2158 47.5059 61.2666V55.8965H46.3457V54.666H47.5059V52.3545L49.0791 51.4053V54.666H50.6699V55.8965H49.0791V61.3545C49.0791 61.8057 49.1055 62.0957 49.1582 62.2246C49.2168 62.3535 49.3076 62.4561 49.4307 62.5322C49.5596 62.6084 49.7412 62.6465 49.9756 62.6465C50.1514 62.6465 50.3828 62.626 50.6699 62.585ZM58.6152 60.9941L60.25 61.1963C59.9922 62.1514 59.5146 62.8926 58.8174 63.4199C58.1201 63.9473 57.2295 64.2109 56.1455 64.2109C54.7803 64.2109 53.6963 63.792 52.8936 62.9541C52.0967 62.1104 51.6982 60.9297 51.6982 59.4121C51.6982 57.8418 52.1025 56.623 52.9111 55.7559C53.7197 54.8887 54.7686 54.4551 56.0576 54.4551C57.3057 54.4551 58.3252 54.8799 59.1162 55.7295C59.9072 56.5791 60.3027 57.7744 60.3027 59.3154C60.3027 59.4092 60.2998 59.5498 60.2939 59.7373H53.333C53.3916 60.7627 53.6816 61.5479 54.2031 62.0928C54.7246 62.6377 55.375 62.9102 56.1543 62.9102C56.7344 62.9102 57.2295 62.7578 57.6396 62.4531C58.0498 62.1484 58.375 61.6621 58.6152 60.9941ZM53.4209 58.4365H58.6328C58.5625 57.6514 58.3633 57.0625 58.0352 56.6699C57.5312 56.0605 56.8779 55.7559 56.0752 55.7559C55.3486 55.7559 54.7363 55.999 54.2383 56.4854C53.7461 56.9717 53.4736 57.6221 53.4209 58.4365ZM62.2451 64V54.666H63.6602V55.9756C63.9531 55.5186 64.3428 55.1523 64.8291 54.877C65.3154 54.5957 65.8691 54.4551 66.4902 54.4551C67.1816 54.4551 67.7471 54.5986 68.1865 54.8857C68.6318 55.1729 68.9453 55.5742 69.127 56.0898C69.8652 55 70.8262 54.4551 72.0098 54.4551C72.9355 54.4551 73.6475 54.7129 74.1455 55.2285C74.6436 55.7383 74.8926 56.5264 74.8926 57.5928V64H73.3193V58.1201C73.3193 57.4873 73.2666 57.0332 73.1611 56.7578C73.0615 56.4766 72.877 56.251 72.6074 56.0811C72.3379 55.9111 72.0215 55.8262 71.6582 55.8262C71.002 55.8262 70.457 56.0459 70.0234 56.4854C69.5898 56.9189 69.373 57.6162 69.373 58.5771V64H67.791V57.9355C67.791 57.2324 67.6621 56.7051 67.4043 56.3535C67.1465 56.002 66.7246 55.8262 66.1387 55.8262C65.6934 55.8262 65.2803 55.9434 64.8994 56.1777C64.5244 56.4121 64.252 56.7549 64.082 57.2061C63.9121 57.6572 63.8271 58.3076 63.8271 59.1572V64H62.2451ZM77.2393 67.5771V54.666H78.6807V55.8789C79.0205 55.4043 79.4043 55.0498 79.832 54.8154C80.2598 54.5752 80.7783 54.4551 81.3877 54.4551C82.1846 54.4551 82.8877 54.6602 83.4971 55.0703C84.1064 55.4805 84.5664 56.0605 84.877 56.8105C85.1875 57.5547 85.3428 58.3721 85.3428 59.2627C85.3428 60.2178 85.1699 61.0791 84.8242 61.8467C84.4844 62.6084 83.9863 63.1943 83.3301 63.6045C82.6797 64.0088 81.9941 64.2109 81.2734 64.2109C80.7461 64.2109 80.2715 64.0996 79.8496 63.877C79.4336 63.6543 79.0908 63.373 78.8213 63.0332V67.5771H77.2393ZM78.6719 59.3857C78.6719 60.5869 78.915 61.4746 79.4014 62.0488C79.8877 62.623 80.4766 62.9102 81.168 62.9102C81.8711 62.9102 82.4717 62.6143 82.9697 62.0225C83.4736 61.4248 83.7256 60.502 83.7256 59.2539C83.7256 58.0645 83.4795 57.1738 82.9873 56.582C82.501 55.9902 81.918 55.6943 81.2383 55.6943C80.5645 55.6943 79.9668 56.0107 79.4453 56.6436C78.9297 57.2705 78.6719 58.1846 78.6719 59.3857ZM90.7129 62.585L90.9414 63.9824C90.4961 64.0762 90.0977 64.123 89.7461 64.123C89.1719 64.123 88.7266 64.0322 88.4102 63.8506C88.0938 63.6689 87.8711 63.4316 87.7422 63.1387C87.6133 62.8398 87.5488 62.2158 87.5488 61.2666V55.8965H86.3887V54.666H87.5488V52.3545L89.1221 51.4053V54.666H90.7129V55.8965H89.1221V61.3545C89.1221 61.8057 89.1484 62.0957 89.2012 62.2246C89.2598 62.3535 89.3506 62.4561 89.4736 62.5322C89.6025 62.6084 89.7842 62.6465 90.0186 62.6465C90.1943 62.6465 90.4258 62.626 90.7129 62.585ZM98.6582 60.9941L100.293 61.1963C100.035 62.1514 99.5576 62.8926 98.8604 63.4199C98.1631 63.9473 97.2725 64.2109 96.1885 64.2109C94.8232 64.2109 93.7393 63.792 92.9365 62.9541C92.1396 62.1104 91.7412 60.9297 91.7412 59.4121C91.7412 57.8418 92.1455 56.623 92.9541 55.7559C93.7627 54.8887 94.8115 54.4551 96.1006 54.4551C97.3486 54.4551 98.3682 54.8799 99.1592 55.7295C99.9502 56.5791 100.346 57.7744 100.346 59.3154C100.346 59.4092 100.343 59.5498 100.337 59.7373H93.376C93.4346 60.7627 93.7246 61.5479 94.2461 62.0928C94.7676 62.6377 95.418 62.9102 96.1973 62.9102C96.7773 62.9102 97.2725 62.7578 97.6826 62.4531C98.0928 62.1484 98.418 61.6621 98.6582 60.9941ZM93.4639 58.4365H98.6758C98.6055 57.6514 98.4062 57.0625 98.0781 56.6699C97.5742 56.0605 96.9209 55.7559 96.1182 55.7559C95.3916 55.7559 94.7793 55.999 94.2812 56.4854C93.7891 56.9717 93.5166 57.6221 93.4639 58.4365ZM108.344 64V62.8223C107.752 63.748 106.882 64.2109 105.733 64.2109C104.989 64.2109 104.304 64.0059 103.677 63.5957C103.056 63.1855 102.572 62.6143 102.227 61.8818C101.887 61.1436 101.717 60.2969 101.717 59.3418C101.717 58.4102 101.872 57.5664 102.183 56.8105C102.493 56.0488 102.959 55.4658 103.58 55.0615C104.201 54.6572 104.896 54.4551 105.663 54.4551C106.226 54.4551 106.727 54.5752 107.166 54.8154C107.605 55.0498 107.963 55.3574 108.238 55.7383V51.1152H109.812V64H108.344ZM103.343 59.3418C103.343 60.5371 103.595 61.4307 104.099 62.0225C104.603 62.6143 105.197 62.9102 105.883 62.9102C106.574 62.9102 107.16 62.6289 107.641 62.0664C108.127 61.498 108.37 60.6338 108.37 59.4736C108.37 58.1963 108.124 57.2588 107.632 56.6611C107.14 56.0635 106.533 55.7646 105.812 55.7646C105.109 55.7646 104.521 56.0518 104.046 56.626C103.577 57.2002 103.343 58.1055 103.343 59.3418ZM117.317 64V51.1152H118.899V55.7383C119.638 54.8828 120.569 54.4551 121.694 54.4551C122.386 54.4551 122.986 54.5928 123.496 54.8682C124.006 55.1377 124.369 55.5127 124.586 55.9932C124.809 56.4736 124.92 57.1709 124.92 58.085V64H123.338V58.085C123.338 57.2939 123.165 56.7197 122.819 56.3623C122.479 55.999 121.996 55.8174 121.369 55.8174C120.9 55.8174 120.458 55.9404 120.042 56.1865C119.632 56.4268 119.339 56.7549 119.163 57.1709C118.987 57.5869 118.899 58.1611 118.899 58.8936V64H117.317ZM133.428 62.8486C132.842 63.3467 132.276 63.6982 131.731 63.9033C131.192 64.1084 130.612 64.2109 129.991 64.2109C128.966 64.2109 128.178 63.9619 127.627 63.4639C127.076 62.96 126.801 62.3184 126.801 61.5391C126.801 61.082 126.903 60.666 127.108 60.291C127.319 59.9102 127.592 59.6055 127.926 59.377C128.266 59.1484 128.646 58.9756 129.068 58.8584C129.379 58.7764 129.848 58.6973 130.475 58.6211C131.752 58.4688 132.692 58.2871 133.296 58.0762C133.302 57.8594 133.305 57.7217 133.305 57.6631C133.305 57.0186 133.155 56.5645 132.856 56.3008C132.452 55.9434 131.852 55.7646 131.055 55.7646C130.311 55.7646 129.76 55.8965 129.402 56.1602C129.051 56.418 128.79 56.8779 128.62 57.54L127.073 57.3291C127.214 56.667 127.445 56.1338 127.768 55.7295C128.09 55.3193 128.556 55.0059 129.165 54.7891C129.774 54.5664 130.48 54.4551 131.283 54.4551C132.08 54.4551 132.728 54.5488 133.226 54.7363C133.724 54.9238 134.09 55.1611 134.324 55.4482C134.559 55.7295 134.723 56.0869 134.816 56.5205C134.869 56.79 134.896 57.2764 134.896 57.9795V60.0889C134.896 61.5596 134.928 62.4912 134.992 62.8838C135.062 63.2705 135.197 63.6426 135.396 64H133.744C133.58 63.6719 133.475 63.2881 133.428 62.8486ZM133.296 59.3154C132.722 59.5498 131.86 59.749 130.712 59.9131C130.062 60.0068 129.602 60.1123 129.332 60.2295C129.062 60.3467 128.854 60.5195 128.708 60.748C128.562 60.9707 128.488 61.2197 128.488 61.4951C128.488 61.917 128.646 62.2686 128.963 62.5498C129.285 62.8311 129.754 62.9717 130.369 62.9717C130.979 62.9717 131.521 62.8398 131.995 62.5762C132.47 62.3066 132.818 61.9404 133.041 61.4775C133.211 61.1201 133.296 60.5928 133.296 59.8955V59.3154ZM137.356 67.5771V54.666H138.798V55.8789C139.138 55.4043 139.521 55.0498 139.949 54.8154C140.377 54.5752 140.896 54.4551 141.505 54.4551C142.302 54.4551 143.005 54.6602 143.614 55.0703C144.224 55.4805 144.684 56.0605 144.994 56.8105C145.305 57.5547 145.46 58.3721 145.46 59.2627C145.46 60.2178 145.287 61.0791 144.941 61.8467C144.602 62.6084 144.104 63.1943 143.447 63.6045C142.797 64.0088 142.111 64.2109 141.391 64.2109C140.863 64.2109 140.389 64.0996 139.967 63.877C139.551 63.6543 139.208 63.373 138.938 63.0332V67.5771H137.356ZM138.789 59.3857C138.789 60.5869 139.032 61.4746 139.519 62.0488C140.005 62.623 140.594 62.9102 141.285 62.9102C141.988 62.9102 142.589 62.6143 143.087 62.0225C143.591 61.4248 143.843 60.502 143.843 59.2539C143.843 58.0645 143.597 57.1738 143.104 56.582C142.618 55.9902 142.035 55.6943 141.355 55.6943C140.682 55.6943 140.084 56.0107 139.562 56.6436C139.047 57.2705 138.789 58.1846 138.789 59.3857ZM147.376 67.5771V54.666H148.817V55.8789C149.157 55.4043 149.541 55.0498 149.969 54.8154C150.396 54.5752 150.915 54.4551 151.524 54.4551C152.321 54.4551 153.024 54.6602 153.634 55.0703C154.243 55.4805 154.703 56.0605 155.014 56.8105C155.324 57.5547 155.479 58.3721 155.479 59.2627C155.479 60.2178 155.307 61.0791 154.961 61.8467C154.621 62.6084 154.123 63.1943 153.467 63.6045C152.816 64.0088 152.131 64.2109 151.41 64.2109C150.883 64.2109 150.408 64.0996 149.986 63.877C149.57 63.6543 149.228 63.373 148.958 63.0332V67.5771H147.376ZM148.809 59.3857C148.809 60.5869 149.052 61.4746 149.538 62.0488C150.024 62.623 150.613 62.9102 151.305 62.9102C152.008 62.9102 152.608 62.6143 153.106 62.0225C153.61 61.4248 153.862 60.502 153.862 59.2539C153.862 58.0645 153.616 57.1738 153.124 56.582C152.638 55.9902 152.055 55.6943 151.375 55.6943C150.701 55.6943 150.104 56.0107 149.582 56.6436C149.066 57.2705 148.809 58.1846 148.809 59.3857ZM157.404 52.9346V51.1152H158.986V52.9346H157.404ZM157.404 64V54.666H158.986V64H157.404ZM161.403 64V54.666H162.827V55.9932C163.513 54.9678 164.503 54.4551 165.798 54.4551C166.36 54.4551 166.876 54.5576 167.345 54.7627C167.819 54.9619 168.174 55.2256 168.408 55.5537C168.643 55.8818 168.807 56.2715 168.9 56.7227C168.959 57.0156 168.988 57.5283 168.988 58.2607V64H167.406V58.3223C167.406 57.6777 167.345 57.1973 167.222 56.8809C167.099 56.5586 166.879 56.3037 166.562 56.1162C166.252 55.9229 165.886 55.8262 165.464 55.8262C164.79 55.8262 164.207 56.04 163.715 56.4678C163.229 56.8955 162.985 57.707 162.985 58.9023V64H161.403ZM177.812 60.9941L179.447 61.1963C179.189 62.1514 178.712 62.8926 178.015 63.4199C177.317 63.9473 176.427 64.2109 175.343 64.2109C173.978 64.2109 172.894 63.792 172.091 62.9541C171.294 62.1104 170.896 60.9297 170.896 59.4121C170.896 57.8418 171.3 56.623 172.108 55.7559C172.917 54.8887 173.966 54.4551 175.255 54.4551C176.503 54.4551 177.522 54.8799 178.313 55.7295C179.104 56.5791 179.5 57.7744 179.5 59.3154C179.5 59.4092 179.497 59.5498 179.491 59.7373H172.53C172.589 60.7627 172.879 61.5479 173.4 62.0928C173.922 62.6377 174.572 62.9102 175.352 62.9102C175.932 62.9102 176.427 62.7578 176.837 62.4531C177.247 62.1484 177.572 61.6621 177.812 60.9941ZM172.618 58.4365H177.83C177.76 57.6514 177.561 57.0625 177.232 56.6699C176.729 56.0605 176.075 55.7559 175.272 55.7559C174.546 55.7559 173.934 55.999 173.436 56.4854C172.943 56.9717 172.671 57.6221 172.618 58.4365ZM180.81 61.2139L182.374 60.9678C182.462 61.5947 182.705 62.0752 183.104 62.4092C183.508 62.7432 184.07 62.9102 184.791 62.9102C185.518 62.9102 186.057 62.7637 186.408 62.4707C186.76 62.1719 186.936 61.8232 186.936 61.4248C186.936 61.0674 186.78 60.7861 186.47 60.5811C186.253 60.4404 185.714 60.2617 184.853 60.0449C183.692 59.752 182.887 59.5 182.436 59.2891C181.99 59.0723 181.65 58.7764 181.416 58.4014C181.188 58.0205 181.073 57.6016 181.073 57.1445C181.073 56.7285 181.167 56.3447 181.354 55.9932C181.548 55.6357 181.809 55.3398 182.137 55.1055C182.383 54.9238 182.717 54.7715 183.139 54.6484C183.566 54.5195 184.023 54.4551 184.51 54.4551C185.242 54.4551 185.884 54.5605 186.435 54.7715C186.991 54.9824 187.401 55.2695 187.665 55.6328C187.929 55.9902 188.11 56.4707 188.21 57.0742L186.663 57.2852C186.593 56.8047 186.388 56.4297 186.048 56.1602C185.714 55.8906 185.239 55.7559 184.624 55.7559C183.897 55.7559 183.379 55.876 183.068 56.1162C182.758 56.3564 182.603 56.6377 182.603 56.96C182.603 57.165 182.667 57.3496 182.796 57.5137C182.925 57.6836 183.127 57.8242 183.402 57.9355C183.561 57.9941 184.026 58.1289 184.8 58.3398C185.919 58.6387 186.698 58.8848 187.138 59.0781C187.583 59.2656 187.932 59.541 188.184 59.9043C188.436 60.2676 188.562 60.7188 188.562 61.2578C188.562 61.7852 188.406 62.2832 188.096 62.752C187.791 63.2148 187.349 63.5752 186.769 63.833C186.188 64.085 185.532 64.2109 184.8 64.2109C183.587 64.2109 182.661 63.959 182.022 63.4551C181.39 62.9512 180.985 62.2041 180.81 61.2139ZM189.81 61.2139L191.374 60.9678C191.462 61.5947 191.705 62.0752 192.104 62.4092C192.508 62.7432 193.07 62.9102 193.791 62.9102C194.518 62.9102 195.057 62.7637 195.408 62.4707C195.76 62.1719 195.936 61.8232 195.936 61.4248C195.936 61.0674 195.78 60.7861 195.47 60.5811C195.253 60.4404 194.714 60.2617 193.853 60.0449C192.692 59.752 191.887 59.5 191.436 59.2891C190.99 59.0723 190.65 58.7764 190.416 58.4014C190.188 58.0205 190.073 57.6016 190.073 57.1445C190.073 56.7285 190.167 56.3447 190.354 55.9932C190.548 55.6357 190.809 55.3398 191.137 55.1055C191.383 54.9238 191.717 54.7715 192.139 54.6484C192.566 54.5195 193.023 54.4551 193.51 54.4551C194.242 54.4551 194.884 54.5605 195.435 54.7715C195.991 54.9824 196.401 55.2695 196.665 55.6328C196.929 55.9902 197.11 56.4707 197.21 57.0742L195.663 57.2852C195.593 56.8047 195.388 56.4297 195.048 56.1602C194.714 55.8906 194.239 55.7559 193.624 55.7559C192.897 55.7559 192.379 55.876 192.068 56.1162C191.758 56.3564 191.603 56.6377 191.603 56.96C191.603 57.165 191.667 57.3496 191.796 57.5137C191.925 57.6836 192.127 57.8242 192.402 57.9355C192.561 57.9941 193.026 58.1289 193.8 58.3398C194.919 58.6387 195.698 58.8848 196.138 59.0781C196.583 59.2656 196.932 59.541 197.184 59.9043C197.436 60.2676 197.562 60.7188 197.562 61.2578C197.562 61.7852 197.406 62.2832 197.096 62.752C196.791 63.2148 196.349 63.5752 195.769 63.833C195.188 64.085 194.532 64.2109 193.8 64.2109C192.587 64.2109 191.661 63.959 191.022 63.4551C190.39 62.9512 189.985 62.2041 189.81 61.2139Z" fill="black" fill-opacity="0.8"/>
<path d="M31.9258 181V172.41H35.166C35.7363 172.41 36.1719 172.438 36.4727 172.492C36.8945 172.562 37.248 172.697 37.5332 172.896C37.8184 173.092 38.0469 173.367 38.2188 173.723C38.3945 174.078 38.4824 174.469 38.4824 174.895C38.4824 175.625 38.25 176.244 37.7852 176.752C37.3203 177.256 36.4805 177.508 35.2656 177.508H33.0625V181H31.9258ZM33.0625 176.494H35.2832C36.0176 176.494 36.5391 176.357 36.8477 176.084C37.1562 175.811 37.3105 175.426 37.3105 174.93C37.3105 174.57 37.2188 174.264 37.0352 174.01C36.8555 173.752 36.6172 173.582 36.3203 173.5C36.1289 173.449 35.7754 173.424 35.2598 173.424H33.0625V176.494ZM39.7715 181V172.41H40.8262V181H39.7715ZM46.7266 178.996L47.8164 179.131C47.6445 179.768 47.3262 180.262 46.8613 180.613C46.3965 180.965 45.8027 181.141 45.0801 181.141C44.1699 181.141 43.4473 180.861 42.9121 180.303C42.3809 179.74 42.1152 178.953 42.1152 177.941C42.1152 176.895 42.3848 176.082 42.9238 175.504C43.4629 174.926 44.1621 174.637 45.0215 174.637C45.8535 174.637 46.5332 174.92 47.0605 175.486C47.5879 176.053 47.8516 176.85 47.8516 177.877C47.8516 177.939 47.8496 178.033 47.8457 178.158H43.2051C43.2441 178.842 43.4375 179.365 43.7852 179.729C44.1328 180.092 44.5664 180.273 45.0859 180.273C45.4727 180.273 45.8027 180.172 46.0762 179.969C46.3496 179.766 46.5664 179.441 46.7266 178.996ZM43.2637 177.291H46.7383C46.6914 176.768 46.5586 176.375 46.3398 176.113C46.0039 175.707 45.5684 175.504 45.0332 175.504C44.5488 175.504 44.1406 175.666 43.8086 175.99C43.4805 176.314 43.2988 176.748 43.2637 177.291ZM53.207 180.232C52.8164 180.564 52.4395 180.799 52.0762 180.936C51.7168 181.072 51.3301 181.141 50.916 181.141C50.2324 181.141 49.707 180.975 49.3398 180.643C48.9727 180.307 48.7891 179.879 48.7891 179.359C48.7891 179.055 48.8574 178.777 48.9941 178.527C49.1348 178.273 49.3164 178.07 49.5391 177.918C49.7656 177.766 50.0195 177.65 50.3008 177.572C50.5078 177.518 50.8203 177.465 51.2383 177.414C52.0898 177.312 52.7168 177.191 53.1191 177.051C53.123 176.906 53.125 176.814 53.125 176.775C53.125 176.346 53.0254 176.043 52.8262 175.867C52.5566 175.629 52.1562 175.51 51.625 175.51C51.1289 175.51 50.7617 175.598 50.5234 175.773C50.2891 175.945 50.1152 176.252 50.002 176.693L48.9707 176.553C49.0645 176.111 49.2188 175.756 49.4336 175.486C49.6484 175.213 49.959 175.004 50.3652 174.859C50.7715 174.711 51.2422 174.637 51.7773 174.637C52.3086 174.637 52.7402 174.699 53.0723 174.824C53.4043 174.949 53.6484 175.107 53.8047 175.299C53.9609 175.486 54.0703 175.725 54.1328 176.014C54.168 176.193 54.1855 176.518 54.1855 176.986V178.393C54.1855 179.373 54.207 179.994 54.25 180.256C54.2969 180.514 54.3867 180.762 54.5195 181H53.418C53.3086 180.781 53.2383 180.525 53.207 180.232ZM53.1191 177.877C52.7363 178.033 52.1621 178.166 51.3965 178.275C50.9629 178.338 50.6562 178.408 50.4766 178.486C50.2969 178.564 50.1582 178.68 50.0605 178.832C49.9629 178.98 49.9141 179.146 49.9141 179.33C49.9141 179.611 50.0195 179.846 50.2305 180.033C50.4453 180.221 50.7578 180.314 51.168 180.314C51.5742 180.314 51.9355 180.227 52.252 180.051C52.5684 179.871 52.8008 179.627 52.9492 179.318C53.0625 179.08 53.1191 178.729 53.1191 178.264V177.877ZM55.4043 179.143L56.4473 178.979C56.5059 179.396 56.668 179.717 56.9336 179.939C57.2031 180.162 57.5781 180.273 58.0586 180.273C58.543 180.273 58.9023 180.176 59.1367 179.98C59.3711 179.781 59.4883 179.549 59.4883 179.283C59.4883 179.045 59.3848 178.857 59.1777 178.721C59.0332 178.627 58.6738 178.508 58.0996 178.363C57.3262 178.168 56.7891 178 56.4883 177.859C56.1914 177.715 55.9648 177.518 55.8086 177.268C55.6562 177.014 55.5801 176.734 55.5801 176.43C55.5801 176.152 55.6426 175.896 55.7676 175.662C55.8965 175.424 56.0703 175.227 56.2891 175.07C56.4531 174.949 56.6758 174.848 56.957 174.766C57.2422 174.68 57.5469 174.637 57.8711 174.637C58.3594 174.637 58.7871 174.707 59.1543 174.848C59.5254 174.988 59.7988 175.18 59.9746 175.422C60.1504 175.66 60.2715 175.98 60.3379 176.383L59.3066 176.523C59.2598 176.203 59.123 175.953 58.8965 175.773C58.6738 175.594 58.3574 175.504 57.9473 175.504C57.4629 175.504 57.1172 175.584 56.9102 175.744C56.7031 175.904 56.5996 176.092 56.5996 176.307C56.5996 176.443 56.6426 176.566 56.7285 176.676C56.8145 176.789 56.9492 176.883 57.1328 176.957C57.2383 176.996 57.5488 177.086 58.0645 177.227C58.8105 177.426 59.3301 177.59 59.623 177.719C59.9199 177.844 60.1523 178.027 60.3203 178.27C60.4883 178.512 60.5723 178.812 60.5723 179.172C60.5723 179.523 60.4688 179.855 60.2617 180.168C60.0586 180.477 59.7637 180.717 59.377 180.889C58.9902 181.057 58.5527 181.141 58.0645 181.141C57.2559 181.141 56.6387 180.973 56.2129 180.637C55.791 180.301 55.5215 179.803 55.4043 179.143ZM65.9043 181V180.086C65.4199 180.789 64.7617 181.141 63.9297 181.141C63.5625 181.141 63.2188 181.07 62.8984 180.93C62.582 180.789 62.3457 180.613 62.1895 180.402C62.0371 180.188 61.9297 179.926 61.8672 179.617C61.8242 179.41 61.8027 179.082 61.8027 178.633V174.777H62.8574V178.229C62.8574 178.779 62.8789 179.15 62.9219 179.342C62.9883 179.619 63.1289 179.838 63.3438 179.998C63.5586 180.154 63.8242 180.232 64.1406 180.232C64.457 180.232 64.7539 180.152 65.0312 179.992C65.3086 179.828 65.5039 179.607 65.6172 179.33C65.7344 179.049 65.793 178.643 65.793 178.111V174.777H66.8477V181H65.9043ZM68.4941 181V174.777H69.4434V175.721C69.6855 175.279 69.9082 174.988 70.1113 174.848C70.3184 174.707 70.5449 174.637 70.791 174.637C71.1465 174.637 71.5078 174.75 71.875 174.977L71.5117 175.955C71.2539 175.803 70.9961 175.727 70.7383 175.727C70.5078 175.727 70.3008 175.797 70.1172 175.938C69.9336 176.074 69.8027 176.266 69.7246 176.512C69.6074 176.887 69.5488 177.297 69.5488 177.742V181H68.4941ZM76.7617 178.996L77.8516 179.131C77.6797 179.768 77.3613 180.262 76.8965 180.613C76.4316 180.965 75.8379 181.141 75.1152 181.141C74.2051 181.141 73.4824 180.861 72.9473 180.303C72.416 179.74 72.1504 178.953 72.1504 177.941C72.1504 176.895 72.4199 176.082 72.959 175.504C73.498 174.926 74.1973 174.637 75.0566 174.637C75.8887 174.637 76.5684 174.92 77.0957 175.486C77.623 176.053 77.8867 176.85 77.8867 177.877C77.8867 177.939 77.8848 178.033 77.8809 178.158H73.2402C73.2793 178.842 73.4727 179.365 73.8203 179.729C74.168 180.092 74.6016 180.273 75.1211 180.273C75.5078 180.273 75.8379 180.172 76.1113 179.969C76.3848 179.766 76.6016 179.441 76.7617 178.996ZM73.2988 177.291H76.7734C76.7266 176.768 76.5938 176.375 76.375 176.113C76.0391 175.707 75.6035 175.504 75.0684 175.504C74.584 175.504 74.1758 175.666 73.8438 175.99C73.5156 176.314 73.334 176.748 73.2988 177.291ZM86.582 180.232C86.1914 180.564 85.8145 180.799 85.4512 180.936C85.0918 181.072 84.7051 181.141 84.291 181.141C83.6074 181.141 83.082 180.975 82.7148 180.643C82.3477 180.307 82.1641 179.879 82.1641 179.359C82.1641 179.055 82.2324 178.777 82.3691 178.527C82.5098 178.273 82.6914 178.07 82.9141 177.918C83.1406 177.766 83.3945 177.65 83.6758 177.572C83.8828 177.518 84.1953 177.465 84.6133 177.414C85.4648 177.312 86.0918 177.191 86.4941 177.051C86.498 176.906 86.5 176.814 86.5 176.775C86.5 176.346 86.4004 176.043 86.2012 175.867C85.9316 175.629 85.5312 175.51 85 175.51C84.5039 175.51 84.1367 175.598 83.8984 175.773C83.6641 175.945 83.4902 176.252 83.377 176.693L82.3457 176.553C82.4395 176.111 82.5938 175.756 82.8086 175.486C83.0234 175.213 83.334 175.004 83.7402 174.859C84.1465 174.711 84.6172 174.637 85.1523 174.637C85.6836 174.637 86.1152 174.699 86.4473 174.824C86.7793 174.949 87.0234 175.107 87.1797 175.299C87.3359 175.486 87.4453 175.725 87.5078 176.014C87.543 176.193 87.5605 176.518 87.5605 176.986V178.393C87.5605 179.373 87.582 179.994 87.625 180.256C87.6719 180.514 87.7617 180.762 87.8945 181H86.793C86.6836 180.781 86.6133 180.525 86.582 180.232ZM86.4941 177.877C86.1113 178.033 85.5371 178.166 84.7715 178.275C84.3379 178.338 84.0312 178.408 83.8516 178.486C83.6719 178.564 83.5332 178.68 83.4355 178.832C83.3379 178.98 83.2891 179.146 83.2891 179.33C83.2891 179.611 83.3945 179.846 83.6055 180.033C83.8203 180.221 84.1328 180.314 84.543 180.314C84.9492 180.314 85.3105 180.227 85.627 180.051C85.9434 179.871 86.1758 179.627 86.3242 179.318C86.4375 179.08 86.4941 178.729 86.4941 178.264V177.877ZM89.2012 181V174.777H90.1504V175.662C90.6074 174.979 91.2676 174.637 92.1309 174.637C92.5059 174.637 92.8496 174.705 93.1621 174.842C93.4785 174.975 93.7148 175.15 93.8711 175.369C94.0273 175.588 94.1367 175.848 94.1992 176.148C94.2383 176.344 94.2578 176.686 94.2578 177.174V181H93.2031V177.215C93.2031 176.785 93.1621 176.465 93.0801 176.254C92.998 176.039 92.8516 175.869 92.6406 175.744C92.4336 175.615 92.1895 175.551 91.9082 175.551C91.459 175.551 91.0703 175.693 90.7422 175.979C90.418 176.264 90.2559 176.805 90.2559 177.602V181H89.2012ZM99.918 181V180.215C99.5234 180.832 98.9434 181.141 98.1777 181.141C97.6816 181.141 97.2246 181.004 96.8066 180.73C96.3926 180.457 96.0703 180.076 95.8398 179.588C95.6133 179.096 95.5 178.531 95.5 177.895C95.5 177.273 95.6035 176.711 95.8105 176.207C96.0176 175.699 96.3281 175.311 96.7422 175.041C97.1562 174.771 97.6191 174.637 98.1309 174.637C98.5059 174.637 98.8398 174.717 99.1328 174.877C99.4258 175.033 99.6641 175.238 99.8477 175.492V172.41H100.896V181H99.918ZM96.584 177.895C96.584 178.691 96.752 179.287 97.0879 179.682C97.4238 180.076 97.8203 180.273 98.2773 180.273C98.7383 180.273 99.1289 180.086 99.4492 179.711C99.7734 179.332 99.9355 178.756 99.9355 177.982C99.9355 177.131 99.7715 176.506 99.4434 176.107C99.1152 175.709 98.7109 175.51 98.2305 175.51C97.7617 175.51 97.3691 175.701 97.0527 176.084C96.7402 176.467 96.584 177.07 96.584 177.895ZM105.479 179.143L106.521 178.979C106.58 179.396 106.742 179.717 107.008 179.939C107.277 180.162 107.652 180.273 108.133 180.273C108.617 180.273 108.977 180.176 109.211 179.98C109.445 179.781 109.562 179.549 109.562 179.283C109.562 179.045 109.459 178.857 109.252 178.721C109.107 178.627 108.748 178.508 108.174 178.363C107.4 178.168 106.863 178 106.562 177.859C106.266 177.715 106.039 177.518 105.883 177.268C105.73 177.014 105.654 176.734 105.654 176.43C105.654 176.152 105.717 175.896 105.842 175.662C105.971 175.424 106.145 175.227 106.363 175.07C106.527 174.949 106.75 174.848 107.031 174.766C107.316 174.68 107.621 174.637 107.945 174.637C108.434 174.637 108.861 174.707 109.229 174.848C109.6 174.988 109.873 175.18 110.049 175.422C110.225 175.66 110.346 175.98 110.412 176.383L109.381 176.523C109.334 176.203 109.197 175.953 108.971 175.773C108.748 175.594 108.432 175.504 108.021 175.504C107.537 175.504 107.191 175.584 106.984 175.744C106.777 175.904 106.674 176.092 106.674 176.307C106.674 176.443 106.717 176.566 106.803 176.676C106.889 176.789 107.023 176.883 107.207 176.957C107.312 176.996 107.623 177.086 108.139 177.227C108.885 177.426 109.404 177.59 109.697 177.719C109.994 177.844 110.227 178.027 110.395 178.27C110.562 178.512 110.646 178.812 110.646 179.172C110.646 179.523 110.543 179.855 110.336 180.168C110.133 180.477 109.838 180.717 109.451 180.889C109.064 181.057 108.627 181.141 108.139 181.141C107.33 181.141 106.713 180.973 106.287 180.637C105.865 180.301 105.596 179.803 105.479 179.143ZM111.508 177.889C111.508 176.736 111.828 175.883 112.469 175.328C113.004 174.867 113.656 174.637 114.426 174.637C115.281 174.637 115.98 174.918 116.523 175.48C117.066 176.039 117.338 176.812 117.338 177.801C117.338 178.602 117.217 179.232 116.975 179.693C116.736 180.15 116.387 180.506 115.926 180.76C115.469 181.014 114.969 181.141 114.426 181.141C113.555 181.141 112.85 180.861 112.311 180.303C111.775 179.744 111.508 178.939 111.508 177.889ZM112.592 177.889C112.592 178.686 112.766 179.283 113.113 179.682C113.461 180.076 113.898 180.273 114.426 180.273C114.949 180.273 115.385 180.074 115.732 179.676C116.08 179.277 116.254 178.67 116.254 177.854C116.254 177.084 116.078 176.502 115.727 176.107C115.379 175.709 114.945 175.51 114.426 175.51C113.898 175.51 113.461 175.707 113.113 176.102C112.766 176.496 112.592 177.092 112.592 177.889ZM121.908 181V174.777H122.857V175.721C123.1 175.279 123.322 174.988 123.525 174.848C123.732 174.707 123.959 174.637 124.205 174.637C124.561 174.637 124.922 174.75 125.289 174.977L124.926 175.955C124.668 175.803 124.41 175.727 124.152 175.727C123.922 175.727 123.715 175.797 123.531 175.938C123.348 176.074 123.217 176.266 123.139 176.512C123.021 176.887 122.963 177.297 122.963 177.742V181H121.908ZM130.176 178.996L131.266 179.131C131.094 179.768 130.775 180.262 130.311 180.613C129.846 180.965 129.252 181.141 128.529 181.141C127.619 181.141 126.896 180.861 126.361 180.303C125.83 179.74 125.564 178.953 125.564 177.941C125.564 176.895 125.834 176.082 126.373 175.504C126.912 174.926 127.611 174.637 128.471 174.637C129.303 174.637 129.982 174.92 130.51 175.486C131.037 176.053 131.301 176.85 131.301 177.877C131.301 177.939 131.299 178.033 131.295 178.158H126.654C126.693 178.842 126.887 179.365 127.234 179.729C127.582 180.092 128.016 180.273 128.535 180.273C128.922 180.273 129.252 180.172 129.525 179.969C129.799 179.766 130.016 179.441 130.176 178.996ZM126.713 177.291H130.188C130.141 176.768 130.008 176.375 129.789 176.113C129.453 175.707 129.018 175.504 128.482 175.504C127.998 175.504 127.59 175.666 127.258 175.99C126.93 176.314 126.748 176.748 126.713 177.291ZM136.656 180.232C136.266 180.564 135.889 180.799 135.525 180.936C135.166 181.072 134.779 181.141 134.365 181.141C133.682 181.141 133.156 180.975 132.789 180.643C132.422 180.307 132.238 179.879 132.238 179.359C132.238 179.055 132.307 178.777 132.443 178.527C132.584 178.273 132.766 178.07 132.988 177.918C133.215 177.766 133.469 177.65 133.75 177.572C133.957 177.518 134.27 177.465 134.688 177.414C135.539 177.312 136.166 177.191 136.568 177.051C136.572 176.906 136.574 176.814 136.574 176.775C136.574 176.346 136.475 176.043 136.275 175.867C136.006 175.629 135.605 175.51 135.074 175.51C134.578 175.51 134.211 175.598 133.973 175.773C133.738 175.945 133.564 176.252 133.451 176.693L132.42 176.553C132.514 176.111 132.668 175.756 132.883 175.486C133.098 175.213 133.408 175.004 133.814 174.859C134.221 174.711 134.691 174.637 135.227 174.637C135.758 174.637 136.189 174.699 136.521 174.824C136.854 174.949 137.098 175.107 137.254 175.299C137.41 175.486 137.52 175.725 137.582 176.014C137.617 176.193 137.635 176.518 137.635 176.986V178.393C137.635 179.373 137.656 179.994 137.699 180.256C137.746 180.514 137.836 180.762 137.969 181H136.867C136.758 180.781 136.688 180.525 136.656 180.232ZM136.568 177.877C136.186 178.033 135.611 178.166 134.846 178.275C134.412 178.338 134.105 178.408 133.926 178.486C133.746 178.564 133.607 178.68 133.51 178.832C133.412 178.98 133.363 179.146 133.363 179.33C133.363 179.611 133.469 179.846 133.68 180.033C133.895 180.221 134.207 180.314 134.617 180.314C135.023 180.314 135.385 180.227 135.701 180.051C136.018 179.871 136.25 179.627 136.398 179.318C136.512 179.08 136.568 178.729 136.568 178.264V177.877ZM143.312 181V180.215C142.918 180.832 142.338 181.141 141.572 181.141C141.076 181.141 140.619 181.004 140.201 180.73C139.787 180.457 139.465 180.076 139.234 179.588C139.008 179.096 138.895 178.531 138.895 177.895C138.895 177.273 138.998 176.711 139.205 176.207C139.412 175.699 139.723 175.311 140.137 175.041C140.551 174.771 141.014 174.637 141.525 174.637C141.9 174.637 142.234 174.717 142.527 174.877C142.82 175.033 143.059 175.238 143.242 175.492V172.41H144.291V181H143.312ZM139.979 177.895C139.979 178.691 140.146 179.287 140.482 179.682C140.818 180.076 141.215 180.273 141.672 180.273C142.133 180.273 142.523 180.086 142.844 179.711C143.168 179.332 143.33 178.756 143.33 177.982C143.33 177.131 143.166 176.506 142.838 176.107C142.51 175.709 142.105 175.51 141.625 175.51C141.156 175.51 140.764 175.701 140.447 176.084C140.135 176.467 139.979 177.07 139.979 177.895ZM151.598 180.057L151.75 180.988C151.453 181.051 151.188 181.082 150.953 181.082C150.57 181.082 150.273 181.021 150.062 180.9C149.852 180.779 149.703 180.621 149.617 180.426C149.531 180.227 149.488 179.811 149.488 179.178V175.598H148.715V174.777H149.488V173.236L150.537 172.604V174.777H151.598V175.598H150.537V179.236C150.537 179.537 150.555 179.73 150.59 179.816C150.629 179.902 150.689 179.971 150.771 180.021C150.857 180.072 150.979 180.098 151.135 180.098C151.252 180.098 151.406 180.084 151.598 180.057ZM152.635 181V172.41H153.689V175.492C154.182 174.922 154.803 174.637 155.553 174.637C156.014 174.637 156.414 174.729 156.754 174.912C157.094 175.092 157.336 175.342 157.48 175.662C157.629 175.982 157.703 176.447 157.703 177.057V181H156.648V177.057C156.648 176.529 156.533 176.146 156.303 175.908C156.076 175.666 155.754 175.545 155.336 175.545C155.023 175.545 154.729 175.627 154.451 175.791C154.178 175.951 153.982 176.17 153.865 176.447C153.748 176.725 153.689 177.107 153.689 177.596V181H152.635ZM163.574 178.996L164.664 179.131C164.492 179.768 164.174 180.262 163.709 180.613C163.244 180.965 162.65 181.141 161.928 181.141C161.018 181.141 160.295 180.861 159.76 180.303C159.229 179.74 158.963 178.953 158.963 177.941C158.963 176.895 159.232 176.082 159.771 175.504C160.311 174.926 161.01 174.637 161.869 174.637C162.701 174.637 163.381 174.92 163.908 175.486C164.436 176.053 164.699 176.85 164.699 177.877C164.699 177.939 164.697 178.033 164.693 178.158H160.053C160.092 178.842 160.285 179.365 160.633 179.729C160.98 180.092 161.414 180.273 161.934 180.273C162.32 180.273 162.65 180.172 162.924 179.969C163.197 179.766 163.414 179.441 163.574 178.996ZM160.111 177.291H163.586C163.539 176.768 163.406 176.375 163.188 176.113C162.852 175.707 162.416 175.504 161.881 175.504C161.396 175.504 160.988 175.666 160.656 175.99C160.328 176.314 160.146 176.748 160.111 177.291ZM170.482 181L168.578 174.777H169.668L170.658 178.369L171.027 179.705C171.043 179.639 171.15 179.211 171.35 178.422L172.34 174.777H173.424L174.355 178.387L174.666 179.576L175.023 178.375L176.09 174.777H177.115L175.17 181H174.074L173.084 177.273L172.844 176.213L171.584 181H170.482ZM182.066 180.232C181.676 180.564 181.299 180.799 180.936 180.936C180.576 181.072 180.189 181.141 179.775 181.141C179.092 181.141 178.566 180.975 178.199 180.643C177.832 180.307 177.648 179.879 177.648 179.359C177.648 179.055 177.717 178.777 177.854 178.527C177.994 178.273 178.176 178.07 178.398 177.918C178.625 177.766 178.879 177.65 179.16 177.572C179.367 177.518 179.68 177.465 180.098 177.414C180.949 177.312 181.576 177.191 181.979 177.051C181.982 176.906 181.984 176.814 181.984 176.775C181.984 176.346 181.885 176.043 181.686 175.867C181.416 175.629 181.016 175.51 180.484 175.51C179.988 175.51 179.621 175.598 179.383 175.773C179.148 175.945 178.975 176.252 178.861 176.693L177.83 176.553C177.924 176.111 178.078 175.756 178.293 175.486C178.508 175.213 178.818 175.004 179.225 174.859C179.631 174.711 180.102 174.637 180.637 174.637C181.168 174.637 181.6 174.699 181.932 174.824C182.264 174.949 182.508 175.107 182.664 175.299C182.82 175.486 182.93 175.725 182.992 176.014C183.027 176.193 183.045 176.518 183.045 176.986V178.393C183.045 179.373 183.066 179.994 183.109 180.256C183.156 180.514 183.246 180.762 183.379 181H182.277C182.168 180.781 182.098 180.525 182.066 180.232ZM181.979 177.877C181.596 178.033 181.021 178.166 180.256 178.275C179.822 178.338 179.516 178.408 179.336 178.486C179.156 178.564 179.018 178.68 178.92 178.832C178.822 178.98 178.773 179.146 178.773 179.33C178.773 179.611 178.879 179.846 179.09 180.033C179.305 180.221 179.617 180.314 180.027 180.314C180.434 180.314 180.795 180.227 181.111 180.051C181.428 179.871 181.66 179.627 181.809 179.318C181.922 179.08 181.979 178.729 181.979 178.264V177.877ZM184.264 179.143L185.307 178.979C185.365 179.396 185.527 179.717 185.793 179.939C186.062 180.162 186.438 180.273 186.918 180.273C187.402 180.273 187.762 180.176 187.996 179.98C188.23 179.781 188.348 179.549 188.348 179.283C188.348 179.045 188.244 178.857 188.037 178.721C187.893 178.627 187.533 178.508 186.959 178.363C186.186 178.168 185.648 178 185.348 177.859C185.051 177.715 184.824 177.518 184.668 177.268C184.516 177.014 184.439 176.734 184.439 176.43C184.439 176.152 184.502 175.896 184.627 175.662C184.756 175.424 184.93 175.227 185.148 175.07C185.312 174.949 185.535 174.848 185.816 174.766C186.102 174.68 186.406 174.637 186.73 174.637C187.219 174.637 187.646 174.707 188.014 174.848C188.385 174.988 188.658 175.18 188.834 175.422C189.01 175.66 189.131 175.98 189.197 176.383L188.166 176.523C188.119 176.203 187.982 175.953 187.756 175.773C187.533 175.594 187.217 175.504 186.807 175.504C186.322 175.504 185.977 175.584 185.77 175.744C185.562 175.904 185.459 176.092 185.459 176.307C185.459 176.443 185.502 176.566 185.588 176.676C185.674 176.789 185.809 176.883 185.992 176.957C186.098 176.996 186.408 177.086 186.924 177.227C187.67 177.426 188.189 177.59 188.482 177.719C188.779 177.844 189.012 178.027 189.18 178.27C189.348 178.512 189.432 178.812 189.432 179.172C189.432 179.523 189.328 179.855 189.121 180.168C188.918 180.477 188.623 180.717 188.236 180.889C187.85 181.057 187.412 181.141 186.924 181.141C186.115 181.141 185.498 180.973 185.072 180.637C184.65 180.301 184.381 179.803 184.264 179.143ZM194.025 181V172.41H195.08V175.492C195.572 174.922 196.193 174.637 196.943 174.637C197.404 174.637 197.805 174.729 198.145 174.912C198.484 175.092 198.727 175.342 198.871 175.662C199.02 175.982 199.094 176.447 199.094 177.057V181H198.039V177.057C198.039 176.529 197.924 176.146 197.693 175.908C197.467 175.666 197.145 175.545 196.727 175.545C196.414 175.545 196.119 175.627 195.842 175.791C195.568 175.951 195.373 176.17 195.256 176.447C195.139 176.725 195.08 177.107 195.08 177.596V181H194.025ZM200.312 177.889C200.312 176.736 200.633 175.883 201.273 175.328C201.809 174.867 202.461 174.637 203.23 174.637C204.086 174.637 204.785 174.918 205.328 175.48C205.871 176.039 206.143 176.812 206.143 177.801C206.143 178.602 206.021 179.232 205.779 179.693C205.541 180.15 205.191 180.506 204.73 180.76C204.273 181.014 203.773 181.141 203.23 181.141C202.359 181.141 201.654 180.861 201.115 180.303C200.58 179.744 200.312 178.939 200.312 177.889ZM201.396 177.889C201.396 178.686 201.57 179.283 201.918 179.682C202.266 180.076 202.703 180.273 203.23 180.273C203.754 180.273 204.189 180.074 204.537 179.676C204.885 179.277 205.059 178.67 205.059 177.854C205.059 177.084 204.883 176.502 204.531 176.107C204.184 175.709 203.75 175.51 203.23 175.51C202.703 175.51 202.266 175.707 201.918 176.102C201.57 176.496 201.396 177.092 201.396 177.889ZM207.385 183.385V174.777H208.346V175.586C208.572 175.27 208.828 175.033 209.113 174.877C209.398 174.717 209.744 174.637 210.15 174.637C210.682 174.637 211.15 174.773 211.557 175.047C211.963 175.32 212.27 175.707 212.477 176.207C212.684 176.703 212.787 177.248 212.787 177.842C212.787 178.479 212.672 179.053 212.441 179.564C212.215 180.072 211.883 180.463 211.445 180.736C211.012 181.006 210.555 181.141 210.074 181.141C209.723 181.141 209.406 181.066 209.125 180.918C208.848 180.77 208.619 180.582 208.439 180.355V183.385H207.385ZM208.34 177.924C208.34 178.725 208.502 179.316 208.826 179.699C209.15 180.082 209.543 180.273 210.004 180.273C210.473 180.273 210.873 180.076 211.205 179.682C211.541 179.283 211.709 178.668 211.709 177.836C211.709 177.043 211.545 176.449 211.217 176.055C210.893 175.66 210.504 175.463 210.051 175.463C209.602 175.463 209.203 175.674 208.855 176.096C208.512 176.514 208.34 177.123 208.34 177.924ZM218.324 178.996L219.414 179.131C219.242 179.768 218.924 180.262 218.459 180.613C217.994 180.965 217.4 181.141 216.678 181.141C215.768 181.141 215.045 180.861 214.51 180.303C213.979 179.74 213.713 178.953 213.713 177.941C213.713 176.895 213.982 176.082 214.521 175.504C215.061 174.926 215.76 174.637 216.619 174.637C217.451 174.637 218.131 174.92 218.658 175.486C219.186 176.053 219.449 176.85 219.449 177.877C219.449 177.939 219.447 178.033 219.443 178.158H214.803C214.842 178.842 215.035 179.365 215.383 179.729C215.73 180.092 216.164 180.273 216.684 180.273C217.07 180.273 217.4 180.172 217.674 179.969C217.947 179.766 218.164 179.441 218.324 178.996ZM214.861 177.291H218.336C218.289 176.768 218.156 176.375 217.938 176.113C217.602 175.707 217.166 175.504 216.631 175.504C216.146 175.504 215.738 175.666 215.406 175.99C215.078 176.314 214.896 176.748 214.861 177.291ZM226.387 180.057L226.539 180.988C226.242 181.051 225.977 181.082 225.742 181.082C225.359 181.082 225.062 181.021 224.852 180.9C224.641 180.779 224.492 180.621 224.406 180.426C224.32 180.227 224.277 179.811 224.277 179.178V175.598H223.504V174.777H224.277V173.236L225.326 172.604V174.777H226.387V175.598H225.326V179.236C225.326 179.537 225.344 179.73 225.379 179.816C225.418 179.902 225.479 179.971 225.561 180.021C225.646 180.072 225.768 180.098 225.924 180.098C226.041 180.098 226.195 180.084 226.387 180.057ZM227.424 181V172.41H228.479V175.492C228.971 174.922 229.592 174.637 230.342 174.637C230.803 174.637 231.203 174.729 231.543 174.912C231.883 175.092 232.125 175.342 232.27 175.662C232.418 175.982 232.492 176.447 232.492 177.057V181H231.438V177.057C231.438 176.529 231.322 176.146 231.092 175.908C230.865 175.666 230.543 175.545 230.125 175.545C229.812 175.545 229.518 175.627 229.24 175.791C228.967 175.951 228.771 176.17 228.654 176.447C228.537 176.725 228.479 177.107 228.479 177.596V181H227.424ZM238.363 178.996L239.453 179.131C239.281 179.768 238.963 180.262 238.498 180.613C238.033 180.965 237.439 181.141 236.717 181.141C235.807 181.141 235.084 180.861 234.549 180.303C234.018 179.74 233.752 178.953 233.752 177.941C233.752 176.895 234.021 176.082 234.561 175.504C235.1 174.926 235.799 174.637 236.658 174.637C237.49 174.637 238.17 174.92 238.697 175.486C239.225 176.053 239.488 176.85 239.488 177.877C239.488 177.939 239.486 178.033 239.482 178.158H234.842C234.881 178.842 235.074 179.365 235.422 179.729C235.77 180.092 236.203 180.273 236.723 180.273C237.109 180.273 237.439 180.172 237.713 179.969C237.986 179.766 238.203 179.441 238.363 178.996ZM234.9 177.291H238.375C238.328 176.768 238.195 176.375 237.977 176.113C237.641 175.707 237.205 175.504 236.67 175.504C236.186 175.504 235.777 175.666 235.445 175.99C235.117 176.314 234.936 176.748 234.9 177.291ZM243.701 179.143L244.744 178.979C244.803 179.396 244.965 179.717 245.23 179.939C245.5 180.162 245.875 180.273 246.355 180.273C246.84 180.273 247.199 180.176 247.434 179.98C247.668 179.781 247.785 179.549 247.785 179.283C247.785 179.045 247.682 178.857 247.475 178.721C247.33 178.627 246.971 178.508 246.396 178.363C245.623 178.168 245.086 178 244.785 177.859C244.488 177.715 244.262 177.518 244.105 177.268C243.953 177.014 243.877 176.734 243.877 176.43C243.877 176.152 243.939 175.896 244.064 175.662C244.193 175.424 244.367 175.227 244.586 175.07C244.75 174.949 244.973 174.848 245.254 174.766C245.539 174.68 245.844 174.637 246.168 174.637C246.656 174.637 247.084 174.707 247.451 174.848C247.822 174.988 248.096 175.18 248.271 175.422C248.447 175.66 248.568 175.98 248.635 176.383L247.604 176.523C247.557 176.203 247.42 175.953 247.193 175.773C246.971 175.594 246.654 175.504 246.244 175.504C245.76 175.504 245.414 175.584 245.207 175.744C245 175.904 244.896 176.092 244.896 176.307C244.896 176.443 244.939 176.566 245.025 176.676C245.111 176.789 245.246 176.883 245.43 176.957C245.535 176.996 245.846 177.086 246.361 177.227C247.107 177.426 247.627 177.59 247.92 177.719C248.217 177.844 248.449 178.027 248.617 178.27C248.785 178.512 248.869 178.812 248.869 179.172C248.869 179.523 248.766 179.855 248.559 180.168C248.355 180.477 248.061 180.717 247.674 180.889C247.287 181.057 246.85 181.141 246.361 181.141C245.553 181.141 244.936 180.973 244.51 180.637C244.088 180.301 243.818 179.803 243.701 179.143ZM249.73 177.889C249.73 176.736 250.051 175.883 250.691 175.328C251.227 174.867 251.879 174.637 252.648 174.637C253.504 174.637 254.203 174.918 254.746 175.48C255.289 176.039 255.561 176.812 255.561 177.801C255.561 178.602 255.439 179.232 255.197 179.693C254.959 180.15 254.609 180.506 254.148 180.76C253.691 181.014 253.191 181.141 252.648 181.141C251.777 181.141 251.072 180.861 250.533 180.303C249.998 179.744 249.73 178.939 249.73 177.889ZM250.814 177.889C250.814 178.686 250.988 179.283 251.336 179.682C251.684 180.076 252.121 180.273 252.648 180.273C253.172 180.273 253.607 180.074 253.955 179.676C254.303 179.277 254.477 178.67 254.477 177.854C254.477 177.084 254.301 176.502 253.949 176.107C253.602 175.709 253.168 175.51 252.648 175.51C252.121 175.51 251.684 175.707 251.336 176.102C250.988 176.496 250.814 177.092 250.814 177.889ZM31.791 197V190.777H32.7344V191.65C32.9297 191.346 33.1895 191.102 33.5137 190.918C33.8379 190.73 34.207 190.637 34.6211 190.637C35.082 190.637 35.459 190.732 35.752 190.924C36.0488 191.115 36.2578 191.383 36.3789 191.727C36.8711 191 37.5117 190.637 38.3008 190.637C38.918 190.637 39.3926 190.809 39.7246 191.152C40.0566 191.492 40.2227 192.018 40.2227 192.729V197H39.1738V193.08C39.1738 192.658 39.1387 192.355 39.0684 192.172C39.002 191.984 38.8789 191.834 38.6992 191.721C38.5195 191.607 38.3086 191.551 38.0664 191.551C37.6289 191.551 37.2656 191.697 36.9766 191.99C36.6875 192.279 36.543 192.744 36.543 193.385V197H35.4883V192.957C35.4883 192.488 35.4023 192.137 35.2305 191.902C35.0586 191.668 34.7773 191.551 34.3867 191.551C34.0898 191.551 33.8145 191.629 33.5605 191.785C33.3105 191.941 33.1289 192.17 33.0156 192.471C32.9023 192.771 32.8457 193.205 32.8457 193.771V197H31.791ZM45.8652 197V196.086C45.3809 196.789 44.7227 197.141 43.8906 197.141C43.5234 197.141 43.1797 197.07 42.8594 196.93C42.543 196.789 42.3066 196.613 42.1504 196.402C41.998 196.188 41.8906 195.926 41.8281 195.617C41.7852 195.41 41.7637 195.082 41.7637 194.633V190.777H42.8184V194.229C42.8184 194.779 42.8398 195.15 42.8828 195.342C42.9492 195.619 43.0898 195.838 43.3047 195.998C43.5195 196.154 43.7852 196.232 44.1016 196.232C44.418 196.232 44.7148 196.152 44.9922 195.992C45.2695 195.828 45.4648 195.607 45.5781 195.33C45.6953 195.049 45.7539 194.643 45.7539 194.111V190.777H46.8086V197H45.8652ZM48.0449 195.143L49.0879 194.979C49.1465 195.396 49.3086 195.717 49.5742 195.939C49.8438 196.162 50.2188 196.273 50.6992 196.273C51.1836 196.273 51.543 196.176 51.7773 195.98C52.0117 195.781 52.1289 195.549 52.1289 195.283C52.1289 195.045 52.0254 194.857 51.8184 194.721C51.6738 194.627 51.3145 194.508 50.7402 194.363C49.9668 194.168 49.4297 194 49.1289 193.859C48.832 193.715 48.6055 193.518 48.4492 193.268C48.2969 193.014 48.2207 192.734 48.2207 192.43C48.2207 192.152 48.2832 191.896 48.4082 191.662C48.5371 191.424 48.7109 191.227 48.9297 191.07C49.0938 190.949 49.3164 190.848 49.5977 190.766C49.8828 190.68 50.1875 190.637 50.5117 190.637C51 190.637 51.4277 190.707 51.7949 190.848C52.166 190.988 52.4395 191.18 52.6152 191.422C52.791 191.66 52.9121 191.98 52.9785 192.383L51.9473 192.523C51.9004 192.203 51.7637 191.953 51.5371 191.773C51.3145 191.594 50.998 191.504 50.5879 191.504C50.1035 191.504 49.7578 191.584 49.5508 191.744C49.3438 191.904 49.2402 192.092 49.2402 192.307C49.2402 192.443 49.2832 192.566 49.3691 192.676C49.4551 192.789 49.5898 192.883 49.7734 192.957C49.8789 192.996 50.1895 193.086 50.7051 193.227C51.4512 193.426 51.9707 193.59 52.2637 193.719C52.5605 193.844 52.793 194.027 52.9609 194.27C53.1289 194.512 53.2129 194.812 53.2129 195.172C53.2129 195.523 53.1094 195.855 52.9023 196.168C52.6992 196.477 52.4043 196.717 52.0176 196.889C51.6309 197.057 51.1934 197.141 50.7051 197.141C49.8965 197.141 49.2793 196.973 48.8535 196.637C48.4316 196.301 48.1621 195.803 48.0449 195.143ZM56.7695 196.057L56.9219 196.988C56.625 197.051 56.3594 197.082 56.125 197.082C55.7422 197.082 55.4453 197.021 55.2344 196.9C55.0234 196.779 54.875 196.621 54.7891 196.426C54.7031 196.227 54.6602 195.811 54.6602 195.178V191.598H53.8867V190.777H54.6602V189.236L55.709 188.604V190.777H56.7695V191.598H55.709V195.236C55.709 195.537 55.7266 195.73 55.7617 195.816C55.8008 195.902 55.8613 195.971 55.9434 196.021C56.0293 196.072 56.1504 196.098 56.3066 196.098C56.4238 196.098 56.5781 196.084 56.7695 196.057ZM61.1465 197V188.41H62.2012V191.492C62.6934 190.922 63.3145 190.637 64.0645 190.637C64.5254 190.637 64.9258 190.729 65.2656 190.912C65.6055 191.092 65.8477 191.342 65.9922 191.662C66.1406 191.982 66.2148 192.447 66.2148 193.057V197H65.1602V193.057C65.1602 192.529 65.0449 192.146 64.8145 191.908C64.5879 191.666 64.2656 191.545 63.8477 191.545C63.5352 191.545 63.2402 191.627 62.9629 191.791C62.6895 191.951 62.4941 192.17 62.377 192.447C62.2598 192.725 62.2012 193.107 62.2012 193.596V197H61.1465ZM71.8867 196.232C71.4961 196.564 71.1191 196.799 70.7559 196.936C70.3965 197.072 70.0098 197.141 69.5957 197.141C68.9121 197.141 68.3867 196.975 68.0195 196.643C67.6523 196.307 67.4688 195.879 67.4688 195.359C67.4688 195.055 67.5371 194.777 67.6738 194.527C67.8145 194.273 67.9961 194.07 68.2188 193.918C68.4453 193.766 68.6992 193.65 68.9805 193.572C69.1875 193.518 69.5 193.465 69.918 193.414C70.7695 193.312 71.3965 193.191 71.7988 193.051C71.8027 192.906 71.8047 192.814 71.8047 192.775C71.8047 192.346 71.7051 192.043 71.5059 191.867C71.2363 191.629 70.8359 191.51 70.3047 191.51C69.8086 191.51 69.4414 191.598 69.2031 191.773C68.9688 191.945 68.7949 192.252 68.6816 192.693L67.6504 192.553C67.7441 192.111 67.8984 191.756 68.1133 191.486C68.3281 191.213 68.6387 191.004 69.0449 190.859C69.4512 190.711 69.9219 190.637 70.457 190.637C70.9883 190.637 71.4199 190.699 71.752 190.824C72.084 190.949 72.3281 191.107 72.4844 191.299C72.6406 191.486 72.75 191.725 72.8125 192.014C72.8477 192.193 72.8652 192.518 72.8652 192.986V194.393C72.8652 195.373 72.8867 195.994 72.9297 196.256C72.9766 196.514 73.0664 196.762 73.1992 197H72.0977C71.9883 196.781 71.918 196.525 71.8867 196.232ZM71.7988 193.877C71.416 194.033 70.8418 194.166 70.0762 194.275C69.6426 194.338 69.3359 194.408 69.1562 194.486C68.9766 194.564 68.8379 194.68 68.7402 194.832C68.6426 194.98 68.5938 195.146 68.5938 195.33C68.5938 195.611 68.6992 195.846 68.9102 196.033C69.125 196.221 69.4375 196.314 69.8477 196.314C70.2539 196.314 70.6152 196.227 70.9316 196.051C71.248 195.871 71.4805 195.627 71.6289 195.318C71.7422 195.08 71.7988 194.729 71.7988 194.264V193.877ZM76.2344 197L73.8672 190.777H74.9805L76.3164 194.504C76.4609 194.906 76.5938 195.324 76.7148 195.758C76.8086 195.43 76.9395 195.035 77.1074 194.574L78.4902 190.777H79.5742L77.2188 197H76.2344ZM84.7656 194.996L85.8555 195.131C85.6836 195.768 85.3652 196.262 84.9004 196.613C84.4355 196.965 83.8418 197.141 83.1191 197.141C82.209 197.141 81.4863 196.861 80.9512 196.303C80.4199 195.74 80.1543 194.953 80.1543 193.941C80.1543 192.895 80.4238 192.082 80.9629 191.504C81.502 190.926 82.2012 190.637 83.0605 190.637C83.8926 190.637 84.5723 190.92 85.0996 191.486C85.627 192.053 85.8906 192.85 85.8906 193.877C85.8906 193.939 85.8887 194.033 85.8848 194.158H81.2441C81.2832 194.842 81.4766 195.365 81.8242 195.729C82.1719 196.092 82.6055 196.273 83.125 196.273C83.5117 196.273 83.8418 196.172 84.1152 195.969C84.3887 195.766 84.6055 195.441 84.7656 194.996ZM81.3027 193.291H84.7773C84.7305 192.768 84.5977 192.375 84.3789 192.113C84.043 191.707 83.6074 191.504 83.0723 191.504C82.5879 191.504 82.1797 191.666 81.8477 191.99C81.5195 192.314 81.3379 192.748 81.3027 193.291ZM94.5859 196.232C94.1953 196.564 93.8184 196.799 93.4551 196.936C93.0957 197.072 92.709 197.141 92.2949 197.141C91.6113 197.141 91.0859 196.975 90.7188 196.643C90.3516 196.307 90.168 195.879 90.168 195.359C90.168 195.055 90.2363 194.777 90.373 194.527C90.5137 194.273 90.6953 194.07 90.918 193.918C91.1445 193.766 91.3984 193.65 91.6797 193.572C91.8867 193.518 92.1992 193.465 92.6172 193.414C93.4688 193.312 94.0957 193.191 94.498 193.051C94.502 192.906 94.5039 192.814 94.5039 192.775C94.5039 192.346 94.4043 192.043 94.2051 191.867C93.9355 191.629 93.5352 191.51 93.0039 191.51C92.5078 191.51 92.1406 191.598 91.9023 191.773C91.668 191.945 91.4941 192.252 91.3809 192.693L90.3496 192.553C90.4434 192.111 90.5977 191.756 90.8125 191.486C91.0273 191.213 91.3379 191.004 91.7441 190.859C92.1504 190.711 92.6211 190.637 93.1562 190.637C93.6875 190.637 94.1191 190.699 94.4512 190.824C94.7832 190.949 95.0273 191.107 95.1836 191.299C95.3398 191.486 95.4492 191.725 95.5117 192.014C95.5469 192.193 95.5645 192.518 95.5645 192.986V194.393C95.5645 195.373 95.5859 195.994 95.6289 196.256C95.6758 196.514 95.7656 196.762 95.8984 197H94.7969C94.6875 196.781 94.6172 196.525 94.5859 196.232ZM94.498 193.877C94.1152 194.033 93.541 194.166 92.7754 194.275C92.3418 194.338 92.0352 194.408 91.8555 194.486C91.6758 194.564 91.5371 194.68 91.4395 194.832C91.3418 194.98 91.293 195.146 91.293 195.33C91.293 195.611 91.3984 195.846 91.6094 196.033C91.8242 196.221 92.1367 196.314 92.5469 196.314C92.9531 196.314 93.3145 196.227 93.6309 196.051C93.9473 195.871 94.1797 195.627 94.3281 195.318C94.4414 195.08 94.498 194.729 94.498 194.264V193.877ZM96.7832 195.143L97.8262 194.979C97.8848 195.396 98.0469 195.717 98.3125 195.939C98.582 196.162 98.957 196.273 99.4375 196.273C99.9219 196.273 100.281 196.176 100.516 195.98C100.75 195.781 100.867 195.549 100.867 195.283C100.867 195.045 100.764 194.857 100.557 194.721C100.412 194.627 100.053 194.508 99.4785 194.363C98.7051 194.168 98.168 194 97.8672 193.859C97.5703 193.715 97.3438 193.518 97.1875 193.268C97.0352 193.014 96.959 192.734 96.959 192.43C96.959 192.152 97.0215 191.896 97.1465 191.662C97.2754 191.424 97.4492 191.227 97.668 191.07C97.832 190.949 98.0547 190.848 98.3359 190.766C98.6211 190.68 98.9258 190.637 99.25 190.637C99.7383 190.637 100.166 190.707 100.533 190.848C100.904 190.988 101.178 191.18 101.354 191.422C101.529 191.66 101.65 191.98 101.717 192.383L100.686 192.523C100.639 192.203 100.502 191.953 100.275 191.773C100.053 191.594 99.7363 191.504 99.3262 191.504C98.8418 191.504 98.4961 191.584 98.2891 191.744C98.082 191.904 97.9785 192.092 97.9785 192.307C97.9785 192.443 98.0215 192.566 98.1074 192.676C98.1934 192.789 98.3281 192.883 98.5117 192.957C98.6172 192.996 98.9277 193.086 99.4434 193.227C100.189 193.426 100.709 193.59 101.002 193.719C101.299 193.844 101.531 194.027 101.699 194.27C101.867 194.512 101.951 194.812 101.951 195.172C101.951 195.523 101.848 195.855 101.641 196.168C101.438 196.477 101.143 196.717 100.756 196.889C100.369 197.057 99.9316 197.141 99.4434 197.141C98.6348 197.141 98.0176 196.973 97.5918 196.637C97.1699 196.301 96.9004 195.803 96.7832 195.143ZM106.152 193.889C106.152 192.736 106.473 191.883 107.113 191.328C107.648 190.867 108.301 190.637 109.07 190.637C109.926 190.637 110.625 190.918 111.168 191.48C111.711 192.039 111.982 192.812 111.982 193.801C111.982 194.602 111.861 195.232 111.619 195.693C111.381 196.15 111.031 196.506 110.57 196.76C110.113 197.014 109.613 197.141 109.07 197.141C108.199 197.141 107.494 196.861 106.955 196.303C106.42 195.744 106.152 194.939 106.152 193.889ZM107.236 193.889C107.236 194.686 107.41 195.283 107.758 195.682C108.105 196.076 108.543 196.273 109.07 196.273C109.594 196.273 110.029 196.074 110.377 195.676C110.725 195.277 110.898 194.67 110.898 193.854C110.898 193.084 110.723 192.502 110.371 192.107C110.023 191.709 109.59 191.51 109.07 191.51C108.543 191.51 108.105 191.707 107.758 192.102C107.41 192.496 107.236 193.092 107.236 193.889ZM113.225 197V190.777H114.174V191.662C114.631 190.979 115.291 190.637 116.154 190.637C116.529 190.637 116.873 190.705 117.186 190.842C117.502 190.975 117.738 191.15 117.895 191.369C118.051 191.588 118.16 191.848 118.223 192.148C118.262 192.344 118.281 192.686 118.281 193.174V197H117.227V193.215C117.227 192.785 117.186 192.465 117.104 192.254C117.021 192.039 116.875 191.869 116.664 191.744C116.457 191.615 116.213 191.551 115.932 191.551C115.482 191.551 115.094 191.693 114.766 191.979C114.441 192.264 114.279 192.805 114.279 193.602V197H113.225ZM124.393 197L122.488 190.777H123.578L124.568 194.369L124.938 195.705C124.953 195.639 125.061 195.211 125.26 194.422L126.25 190.777H127.334L128.266 194.387L128.576 195.576L128.934 194.375L130 190.777H131.025L129.08 197H127.984L126.994 193.273L126.754 192.213L125.494 197H124.393ZM135.977 196.232C135.586 196.564 135.209 196.799 134.846 196.936C134.486 197.072 134.1 197.141 133.686 197.141C133.002 197.141 132.477 196.975 132.109 196.643C131.742 196.307 131.559 195.879 131.559 195.359C131.559 195.055 131.627 194.777 131.764 194.527C131.904 194.273 132.086 194.07 132.309 193.918C132.535 193.766 132.789 193.65 133.07 193.572C133.277 193.518 133.59 193.465 134.008 193.414C134.859 193.312 135.486 193.191 135.889 193.051C135.893 192.906 135.895 192.814 135.895 192.775C135.895 192.346 135.795 192.043 135.596 191.867C135.326 191.629 134.926 191.51 134.395 191.51C133.898 191.51 133.531 191.598 133.293 191.773C133.059 191.945 132.885 192.252 132.771 192.693L131.74 192.553C131.834 192.111 131.988 191.756 132.203 191.486C132.418 191.213 132.729 191.004 133.135 190.859C133.541 190.711 134.012 190.637 134.547 190.637C135.078 190.637 135.51 190.699 135.842 190.824C136.174 190.949 136.418 191.107 136.574 191.299C136.73 191.486 136.84 191.725 136.902 192.014C136.938 192.193 136.955 192.518 136.955 192.986V194.393C136.955 195.373 136.977 195.994 137.02 196.256C137.066 196.514 137.156 196.762 137.289 197H136.188C136.078 196.781 136.008 196.525 135.977 196.232ZM135.889 193.877C135.506 194.033 134.932 194.166 134.166 194.275C133.732 194.338 133.426 194.408 133.246 194.486C133.066 194.564 132.928 194.68 132.83 194.832C132.732 194.98 132.684 195.146 132.684 195.33C132.684 195.611 132.789 195.846 133 196.033C133.215 196.221 133.527 196.314 133.938 196.314C134.344 196.314 134.705 196.227 135.021 196.051C135.338 195.871 135.57 195.627 135.719 195.318C135.832 195.08 135.889 194.729 135.889 194.264V193.877ZM138.174 195.143L139.217 194.979C139.275 195.396 139.438 195.717 139.703 195.939C139.973 196.162 140.348 196.273 140.828 196.273C141.312 196.273 141.672 196.176 141.906 195.98C142.141 195.781 142.258 195.549 142.258 195.283C142.258 195.045 142.154 194.857 141.947 194.721C141.803 194.627 141.443 194.508 140.869 194.363C140.096 194.168 139.559 194 139.258 193.859C138.961 193.715 138.734 193.518 138.578 193.268C138.426 193.014 138.35 192.734 138.35 192.43C138.35 192.152 138.412 191.896 138.537 191.662C138.666 191.424 138.84 191.227 139.059 191.07C139.223 190.949 139.445 190.848 139.727 190.766C140.012 190.68 140.316 190.637 140.641 190.637C141.129 190.637 141.557 190.707 141.924 190.848C142.295 190.988 142.568 191.18 142.744 191.422C142.92 191.66 143.041 191.98 143.107 192.383L142.076 192.523C142.029 192.203 141.893 191.953 141.666 191.773C141.443 191.594 141.127 191.504 140.717 191.504C140.232 191.504 139.887 191.584 139.68 191.744C139.473 191.904 139.369 192.092 139.369 192.307C139.369 192.443 139.412 192.566 139.498 192.676C139.584 192.789 139.719 192.883 139.902 192.957C140.008 192.996 140.318 193.086 140.834 193.227C141.58 193.426 142.1 193.59 142.393 193.719C142.689 193.844 142.922 194.027 143.09 194.27C143.258 194.512 143.342 194.812 143.342 195.172C143.342 195.523 143.238 195.855 143.031 196.168C142.828 196.477 142.533 196.717 142.146 196.889C141.76 197.057 141.322 197.141 140.834 197.141C140.025 197.141 139.408 196.973 138.982 196.637C138.561 196.301 138.291 195.803 138.174 195.143ZM149.084 197L147.18 190.777H148.27L149.26 194.369L149.629 195.705C149.645 195.639 149.752 195.211 149.951 194.422L150.941 190.777H152.025L152.957 194.387L153.268 195.576L153.625 194.375L154.691 190.777H155.717L153.771 197H152.676L151.686 193.273L151.445 192.213L150.186 197H149.084ZM160.668 196.232C160.277 196.564 159.9 196.799 159.537 196.936C159.178 197.072 158.791 197.141 158.377 197.141C157.693 197.141 157.168 196.975 156.801 196.643C156.434 196.307 156.25 195.879 156.25 195.359C156.25 195.055 156.318 194.777 156.455 194.527C156.596 194.273 156.777 194.07 157 193.918C157.227 193.766 157.48 193.65 157.762 193.572C157.969 193.518 158.281 193.465 158.699 193.414C159.551 193.312 160.178 193.191 160.58 193.051C160.584 192.906 160.586 192.814 160.586 192.775C160.586 192.346 160.486 192.043 160.287 191.867C160.018 191.629 159.617 191.51 159.086 191.51C158.59 191.51 158.223 191.598 157.984 191.773C157.75 191.945 157.576 192.252 157.463 192.693L156.432 192.553C156.525 192.111 156.68 191.756 156.895 191.486C157.109 191.213 157.42 191.004 157.826 190.859C158.232 190.711 158.703 190.637 159.238 190.637C159.77 190.637 160.201 190.699 160.533 190.824C160.865 190.949 161.109 191.107 161.266 191.299C161.422 191.486 161.531 191.725 161.594 192.014C161.629 192.193 161.646 192.518 161.646 192.986V194.393C161.646 195.373 161.668 195.994 161.711 196.256C161.758 196.514 161.848 196.762 161.98 197H160.879C160.77 196.781 160.699 196.525 160.668 196.232ZM160.58 193.877C160.197 194.033 159.623 194.166 158.857 194.275C158.424 194.338 158.117 194.408 157.938 194.486C157.758 194.564 157.619 194.68 157.521 194.832C157.424 194.98 157.375 195.146 157.375 195.33C157.375 195.611 157.48 195.846 157.691 196.033C157.906 196.221 158.219 196.314 158.629 196.314C159.035 196.314 159.396 196.227 159.713 196.051C160.029 195.871 160.262 195.627 160.41 195.318C160.523 195.08 160.58 194.729 160.58 194.264V193.877ZM163.287 197V190.777H164.236V191.662C164.693 190.979 165.354 190.637 166.217 190.637C166.592 190.637 166.936 190.705 167.248 190.842C167.564 190.975 167.801 191.15 167.957 191.369C168.113 191.588 168.223 191.848 168.285 192.148C168.324 192.344 168.344 192.686 168.344 193.174V197H167.289V193.215C167.289 192.785 167.248 192.465 167.166 192.254C167.084 192.039 166.938 191.869 166.727 191.744C166.52 191.615 166.275 191.551 165.994 191.551C165.545 191.551 165.156 191.693 164.828 191.979C164.504 192.264 164.342 192.805 164.342 193.602V197H163.287ZM172.27 196.057L172.422 196.988C172.125 197.051 171.859 197.082 171.625 197.082C171.242 197.082 170.945 197.021 170.734 196.9C170.523 196.779 170.375 196.621 170.289 196.426C170.203 196.227 170.16 195.811 170.16 195.178V191.598H169.387V190.777H170.16V189.236L171.209 188.604V190.777H172.27V191.598H171.209V195.236C171.209 195.537 171.227 195.73 171.262 195.816C171.301 195.902 171.361 195.971 171.443 196.021C171.529 196.072 171.65 196.098 171.807 196.098C171.924 196.098 172.078 196.084 172.27 196.057ZM180.725 197V196.086C180.24 196.789 179.582 197.141 178.75 197.141C178.383 197.141 178.039 197.07 177.719 196.93C177.402 196.789 177.166 196.613 177.01 196.402C176.857 196.188 176.75 195.926 176.688 195.617C176.645 195.41 176.623 195.082 176.623 194.633V190.777H177.678V194.229C177.678 194.779 177.699 195.15 177.742 195.342C177.809 195.619 177.949 195.838 178.164 195.998C178.379 196.154 178.645 196.232 178.961 196.232C179.277 196.232 179.574 196.152 179.852 195.992C180.129 195.828 180.324 195.607 180.438 195.33C180.555 195.049 180.613 194.643 180.613 194.111V190.777H181.668V197H180.725ZM183.326 199.385V190.777H184.287V191.586C184.514 191.27 184.77 191.033 185.055 190.877C185.34 190.717 185.686 190.637 186.092 190.637C186.623 190.637 187.092 190.773 187.498 191.047C187.904 191.32 188.211 191.707 188.418 192.207C188.625 192.703 188.729 193.248 188.729 193.842C188.729 194.479 188.613 195.053 188.383 195.564C188.156 196.072 187.824 196.463 187.387 196.736C186.953 197.006 186.496 197.141 186.016 197.141C185.664 197.141 185.348 197.066 185.066 196.918C184.789 196.77 184.561 196.582 184.381 196.355V199.385H183.326ZM184.281 193.924C184.281 194.725 184.443 195.316 184.768 195.699C185.092 196.082 185.484 196.273 185.945 196.273C186.414 196.273 186.814 196.076 187.146 195.682C187.482 195.283 187.65 194.668 187.65 193.836C187.65 193.043 187.486 192.449 187.158 192.055C186.834 191.66 186.445 191.463 185.992 191.463C185.543 191.463 185.145 191.674 184.797 192.096C184.453 192.514 184.281 193.123 184.281 193.924ZM192.953 193.889C192.953 192.736 193.273 191.883 193.914 191.328C194.449 190.867 195.102 190.637 195.871 190.637C196.727 190.637 197.426 190.918 197.969 191.48C198.512 192.039 198.783 192.812 198.783 193.801C198.783 194.602 198.662 195.232 198.42 195.693C198.182 196.15 197.832 196.506 197.371 196.76C196.914 197.014 196.414 197.141 195.871 197.141C195 197.141 194.295 196.861 193.756 196.303C193.221 195.744 192.953 194.939 192.953 193.889ZM194.037 193.889C194.037 194.686 194.211 195.283 194.559 195.682C194.906 196.076 195.344 196.273 195.871 196.273C196.395 196.273 196.83 196.074 197.178 195.676C197.525 195.277 197.699 194.67 197.699 193.854C197.699 193.084 197.523 192.502 197.172 192.107C196.824 191.709 196.391 191.51 195.871 191.51C195.344 191.51 194.906 191.707 194.559 192.102C194.211 192.496 194.037 193.092 194.037 193.889ZM200.277 197V191.598H199.346V190.777H200.277V190.115C200.277 189.697 200.314 189.387 200.389 189.184C200.49 188.91 200.668 188.689 200.922 188.521C201.18 188.35 201.539 188.264 202 188.264C202.297 188.264 202.625 188.299 202.984 188.369L202.826 189.289C202.607 189.25 202.4 189.23 202.205 189.23C201.885 189.23 201.658 189.299 201.525 189.436C201.393 189.572 201.326 189.828 201.326 190.203V190.777H202.539V191.598H201.326V197H200.277ZM207.033 197V188.41H208.17V197H207.033ZM214.533 197L212.629 190.777H213.719L214.709 194.369L215.078 195.705C215.094 195.639 215.201 195.211 215.4 194.422L216.391 190.777H217.475L218.406 194.387L218.717 195.576L219.074 194.375L220.141 190.777H221.166L219.221 197H218.125L217.135 193.273L216.895 192.213L215.635 197H214.533ZM222.062 189.623V188.41H223.117V189.623H222.062ZM222.062 197V190.777H223.117V197H222.062ZM224.705 197V188.41H225.76V197H224.705ZM227.377 197V188.41H228.432V197H227.377ZM233.4 197V190.777H234.35V191.721C234.592 191.279 234.814 190.988 235.018 190.848C235.225 190.707 235.451 190.637 235.697 190.637C236.053 190.637 236.414 190.75 236.781 190.977L236.418 191.955C236.16 191.803 235.902 191.727 235.645 191.727C235.414 191.727 235.207 191.797 235.023 191.938C234.84 192.074 234.709 192.266 234.631 192.512C234.514 192.887 234.455 193.297 234.455 193.742V197H233.4ZM237.414 189.623V188.41H238.469V189.623H237.414ZM237.414 197V190.777H238.469V197H237.414ZM241.809 197L239.441 190.777H240.555L241.891 194.504C242.035 194.906 242.168 195.324 242.289 195.758C242.383 195.43 242.514 195.035 242.682 194.574L244.064 190.777H245.148L242.793 197H241.809ZM250.141 196.232C249.75 196.564 249.373 196.799 249.01 196.936C248.65 197.072 248.264 197.141 247.85 197.141C247.166 197.141 246.641 196.975 246.273 196.643C245.906 196.307 245.723 195.879 245.723 195.359C245.723 195.055 245.791 194.777 245.928 194.527C246.068 194.273 246.25 194.07 246.473 193.918C246.699 193.766 246.953 193.65 247.234 193.572C247.441 193.518 247.754 193.465 248.172 193.414C249.023 193.312 249.65 193.191 250.053 193.051C250.057 192.906 250.059 192.814 250.059 192.775C250.059 192.346 249.959 192.043 249.76 191.867C249.49 191.629 249.09 191.51 248.559 191.51C248.062 191.51 247.695 191.598 247.457 191.773C247.223 191.945 247.049 192.252 246.936 192.693L245.904 192.553C245.998 192.111 246.152 191.756 246.367 191.486C246.582 191.213 246.893 191.004 247.299 190.859C247.705 190.711 248.176 190.637 248.711 190.637C249.242 190.637 249.674 190.699 250.006 190.824C250.338 190.949 250.582 191.107 250.738 191.299C250.895 191.486 251.004 191.725 251.066 192.014C251.102 192.193 251.119 192.518 251.119 192.986V194.393C251.119 195.373 251.141 195.994 251.184 196.256C251.23 196.514 251.32 196.762 251.453 197H250.352C250.242 196.781 250.172 196.525 250.141 196.232ZM250.053 193.877C249.67 194.033 249.096 194.166 248.33 194.275C247.896 194.338 247.59 194.408 247.41 194.486C247.23 194.564 247.092 194.68 246.994 194.832C246.896 194.98 246.848 195.146 246.848 195.33C246.848 195.611 246.953 195.846 247.164 196.033C247.379 196.221 247.691 196.314 248.102 196.314C248.508 196.314 248.869 196.227 249.186 196.051C249.502 195.871 249.734 195.627 249.883 195.318C249.996 195.08 250.053 194.729 250.053 194.264V193.877ZM252.736 197V188.41H253.791V197H252.736ZM35.8516 210.721L36.8887 210.855C36.7754 211.57 36.4844 212.131 36.0156 212.537C35.5508 212.939 34.9785 213.141 34.2988 213.141C33.4473 213.141 32.7617 212.863 32.2422 212.309C31.7266 211.75 31.4688 210.951 31.4688 209.912C31.4688 209.24 31.5801 208.652 31.8027 208.148C32.0254 207.645 32.3633 207.268 32.8164 207.018C33.2734 206.764 33.7695 206.637 34.3047 206.637C34.9805 206.637 35.5332 206.809 35.9629 207.152C36.3926 207.492 36.668 207.977 36.7891 208.605L35.7637 208.764C35.666 208.346 35.4922 208.031 35.2422 207.82C34.9961 207.609 34.6973 207.504 34.3457 207.504C33.8145 207.504 33.3828 207.695 33.0508 208.078C32.7188 208.457 32.5527 209.059 32.5527 209.883C32.5527 210.719 32.7129 211.326 33.0332 211.705C33.3535 212.084 33.7715 212.273 34.2871 212.273C34.7012 212.273 35.0469 212.146 35.3242 211.893C35.6016 211.639 35.7773 211.248 35.8516 210.721ZM41.8516 212.232C41.4609 212.564 41.084 212.799 40.7207 212.936C40.3613 213.072 39.9746 213.141 39.5605 213.141C38.877 213.141 38.3516 212.975 37.9844 212.643C37.6172 212.307 37.4336 211.879 37.4336 211.359C37.4336 211.055 37.502 210.777 37.6387 210.527C37.7793 210.273 37.9609 210.07 38.1836 209.918C38.4102 209.766 38.6641 209.65 38.9453 209.572C39.1523 209.518 39.4648 209.465 39.8828 209.414C40.7344 209.312 41.3613 209.191 41.7637 209.051C41.7676 208.906 41.7695 208.814 41.7695 208.775C41.7695 208.346 41.6699 208.043 41.4707 207.867C41.2012 207.629 40.8008 207.51 40.2695 207.51C39.7734 207.51 39.4062 207.598 39.168 207.773C38.9336 207.945 38.7598 208.252 38.6465 208.693L37.6152 208.553C37.709 208.111 37.8633 207.756 38.0781 207.486C38.293 207.213 38.6035 207.004 39.0098 206.859C39.416 206.711 39.8867 206.637 40.4219 206.637C40.9531 206.637 41.3848 206.699 41.7168 206.824C42.0488 206.949 42.293 207.107 42.4492 207.299C42.6055 207.486 42.7148 207.725 42.7773 208.014C42.8125 208.193 42.8301 208.518 42.8301 208.986V210.393C42.8301 211.373 42.8516 211.994 42.8945 212.256C42.9414 212.514 43.0312 212.762 43.1641 213H42.0625C41.9531 212.781 41.8828 212.525 41.8516 212.232ZM41.7637 209.877C41.3809 210.033 40.8066 210.166 40.041 210.275C39.6074 210.338 39.3008 210.408 39.1211 210.486C38.9414 210.564 38.8027 210.68 38.7051 210.832C38.6074 210.98 38.5586 211.146 38.5586 211.33C38.5586 211.611 38.6641 211.846 38.875 212.033C39.0898 212.221 39.4023 212.314 39.8125 212.314C40.2188 212.314 40.5801 212.227 40.8965 212.051C41.2129 211.871 41.4453 211.627 41.5938 211.318C41.707 211.08 41.7637 210.729 41.7637 210.264V209.877ZM44.4707 213V206.777H45.4141V207.65C45.6094 207.346 45.8691 207.102 46.1934 206.918C46.5176 206.73 46.8867 206.637 47.3008 206.637C47.7617 206.637 48.1387 206.732 48.4316 206.924C48.7285 207.115 48.9375 207.383 49.0586 207.727C49.5508 207 50.1914 206.637 50.9805 206.637C51.5977 206.637 52.0723 206.809 52.4043 207.152C52.7363 207.492 52.9023 208.018 52.9023 208.729V213H51.8535V209.08C51.8535 208.658 51.8184 208.355 51.748 208.172C51.6816 207.984 51.5586 207.834 51.3789 207.721C51.1992 207.607 50.9883 207.551 50.7461 207.551C50.3086 207.551 49.9453 207.697 49.6562 207.99C49.3672 208.279 49.2227 208.744 49.2227 209.385V213H48.168V208.957C48.168 208.488 48.082 208.137 47.9102 207.902C47.7383 207.668 47.457 207.551 47.0664 207.551C46.7695 207.551 46.4941 207.629 46.2402 207.785C45.9902 207.941 45.8086 208.17 45.6953 208.471C45.582 208.771 45.5254 209.205 45.5254 209.771V213H44.4707ZM58.7266 210.996L59.8164 211.131C59.6445 211.768 59.3262 212.262 58.8613 212.613C58.3965 212.965 57.8027 213.141 57.0801 213.141C56.1699 213.141 55.4473 212.861 54.9121 212.303C54.3809 211.74 54.1152 210.953 54.1152 209.941C54.1152 208.895 54.3848 208.082 54.9238 207.504C55.4629 206.926 56.1621 206.637 57.0215 206.637C57.8535 206.637 58.5332 206.92 59.0605 207.486C59.5879 208.053 59.8516 208.85 59.8516 209.877C59.8516 209.939 59.8496 210.033 59.8457 210.158H55.2051C55.2441 210.842 55.4375 211.365 55.7852 211.729C56.1328 212.092 56.5664 212.273 57.0859 212.273C57.4727 212.273 57.8027 212.172 58.0762 211.969C58.3496 211.766 58.5664 211.441 58.7266 210.996ZM55.2637 209.291H58.7383C58.6914 208.768 58.5586 208.375 58.3398 208.113C58.0039 207.707 57.5684 207.504 57.0332 207.504C56.5488 207.504 56.1406 207.666 55.8086 207.99C55.4805 208.314 55.2988 208.748 55.2637 209.291ZM66.7891 212.057L66.9414 212.988C66.6445 213.051 66.3789 213.082 66.1445 213.082C65.7617 213.082 65.4648 213.021 65.2539 212.9C65.043 212.779 64.8945 212.621 64.8086 212.426C64.7227 212.227 64.6797 211.811 64.6797 211.178V207.598H63.9062V206.777H64.6797V205.236L65.7285 204.604V206.777H66.7891V207.598H65.7285V211.236C65.7285 211.537 65.7461 211.73 65.7812 211.816C65.8203 211.902 65.8809 211.971 65.9629 212.021C66.0488 212.072 66.1699 212.098 66.3262 212.098C66.4434 212.098 66.5977 212.084 66.7891 212.057ZM67.4336 209.889C67.4336 208.736 67.7539 207.883 68.3945 207.328C68.9297 206.867 69.582 206.637 70.3516 206.637C71.207 206.637 71.9062 206.918 72.4492 207.48C72.9922 208.039 73.2637 208.812 73.2637 209.801C73.2637 210.602 73.1426 211.232 72.9004 211.693C72.6621 212.15 72.3125 212.506 71.8516 212.76C71.3945 213.014 70.8945 213.141 70.3516 213.141C69.4805 213.141 68.7754 212.861 68.2363 212.303C67.7012 211.744 67.4336 210.939 67.4336 209.889ZM68.5176 209.889C68.5176 210.686 68.6914 211.283 69.0391 211.682C69.3867 212.076 69.8242 212.273 70.3516 212.273C70.875 212.273 71.3105 212.074 71.6582 211.676C72.0059 211.277 72.1797 210.67 72.1797 209.854C72.1797 209.084 72.0039 208.502 71.6523 208.107C71.3047 207.709 70.8711 207.51 70.3516 207.51C69.8242 207.51 69.3867 207.707 69.0391 208.102C68.6914 208.496 68.5176 209.092 68.5176 209.889ZM81.9062 210.721L82.9434 210.855C82.8301 211.57 82.5391 212.131 82.0703 212.537C81.6055 212.939 81.0332 213.141 80.3535 213.141C79.502 213.141 78.8164 212.863 78.2969 212.309C77.7812 211.75 77.5234 210.951 77.5234 209.912C77.5234 209.24 77.6348 208.652 77.8574 208.148C78.0801 207.645 78.418 207.268 78.8711 207.018C79.3281 206.764 79.8242 206.637 80.3594 206.637C81.0352 206.637 81.5879 206.809 82.0176 207.152C82.4473 207.492 82.7227 207.977 82.8438 208.605L81.8184 208.764C81.7207 208.346 81.5469 208.031 81.2969 207.82C81.0508 207.609 80.752 207.504 80.4004 207.504C79.8691 207.504 79.4375 207.695 79.1055 208.078C78.7734 208.457 78.6074 209.059 78.6074 209.883C78.6074 210.719 78.7676 211.326 79.0879 211.705C79.4082 212.084 79.8262 212.273 80.3418 212.273C80.7559 212.273 81.1016 212.146 81.3789 211.893C81.6562 211.639 81.832 211.248 81.9062 210.721ZM87.9062 212.232C87.5156 212.564 87.1387 212.799 86.7754 212.936C86.416 213.072 86.0293 213.141 85.6152 213.141C84.9316 213.141 84.4062 212.975 84.0391 212.643C83.6719 212.307 83.4883 211.879 83.4883 211.359C83.4883 211.055 83.5566 210.777 83.6934 210.527C83.834 210.273 84.0156 210.07 84.2383 209.918C84.4648 209.766 84.7188 209.65 85 209.572C85.207 209.518 85.5195 209.465 85.9375 209.414C86.7891 209.312 87.416 209.191 87.8184 209.051C87.8223 208.906 87.8242 208.814 87.8242 208.775C87.8242 208.346 87.7246 208.043 87.5254 207.867C87.2559 207.629 86.8555 207.51 86.3242 207.51C85.8281 207.51 85.4609 207.598 85.2227 207.773C84.9883 207.945 84.8145 208.252 84.7012 208.693L83.6699 208.553C83.7637 208.111 83.918 207.756 84.1328 207.486C84.3477 207.213 84.6582 207.004 85.0645 206.859C85.4707 206.711 85.9414 206.637 86.4766 206.637C87.0078 206.637 87.4395 206.699 87.7715 206.824C88.1035 206.949 88.3477 207.107 88.5039 207.299C88.6602 207.486 88.7695 207.725 88.832 208.014C88.8672 208.193 88.8848 208.518 88.8848 208.986V210.393C88.8848 211.373 88.9062 211.994 88.9492 212.256C88.9961 212.514 89.0859 212.762 89.2188 213H88.1172C88.0078 212.781 87.9375 212.525 87.9062 212.232ZM87.8184 209.877C87.4355 210.033 86.8613 210.166 86.0957 210.275C85.6621 210.338 85.3555 210.408 85.1758 210.486C84.9961 210.564 84.8574 210.68 84.7598 210.832C84.6621 210.98 84.6133 211.146 84.6133 211.33C84.6133 211.611 84.7188 211.846 84.9297 212.033C85.1445 212.221 85.457 212.314 85.8672 212.314C86.2734 212.314 86.6348 212.227 86.9512 212.051C87.2676 211.871 87.5 211.627 87.6484 211.318C87.7617 211.08 87.8184 210.729 87.8184 210.264V209.877ZM90.502 213V204.41H91.5566V213H90.502ZM97.2578 210.721L98.2949 210.855C98.1816 211.57 97.8906 212.131 97.4219 212.537C96.957 212.939 96.3848 213.141 95.7051 213.141C94.8535 213.141 94.168 212.863 93.6484 212.309C93.1328 211.75 92.875 210.951 92.875 209.912C92.875 209.24 92.9863 208.652 93.209 208.148C93.4316 207.645 93.7695 207.268 94.2227 207.018C94.6797 206.764 95.1758 206.637 95.7109 206.637C96.3867 206.637 96.9395 206.809 97.3691 207.152C97.7988 207.492 98.0742 207.977 98.1953 208.605L97.1699 208.764C97.0723 208.346 96.8984 208.031 96.6484 207.82C96.4023 207.609 96.1035 207.504 95.752 207.504C95.2207 207.504 94.7891 207.695 94.457 208.078C94.125 208.457 93.959 209.059 93.959 209.883C93.959 210.719 94.1191 211.326 94.4395 211.705C94.7598 212.084 95.1777 212.273 95.6934 212.273C96.1074 212.273 96.4531 212.146 96.7305 211.893C97.0078 211.639 97.1836 211.248 97.2578 210.721ZM103.275 213V212.086C102.791 212.789 102.133 213.141 101.301 213.141C100.934 213.141 100.59 213.07 100.27 212.93C99.9531 212.789 99.7168 212.613 99.5605 212.402C99.4082 212.188 99.3008 211.926 99.2383 211.617C99.1953 211.41 99.1738 211.082 99.1738 210.633V206.777H100.229V210.229C100.229 210.779 100.25 211.15 100.293 211.342C100.359 211.619 100.5 211.838 100.715 211.998C100.93 212.154 101.195 212.232 101.512 212.232C101.828 212.232 102.125 212.152 102.402 211.992C102.68 211.828 102.875 211.607 102.988 211.33C103.105 211.049 103.164 210.643 103.164 210.111V206.777H104.219V213H103.275ZM105.854 213V204.41H106.908V213H105.854ZM112.609 212.232C112.219 212.564 111.842 212.799 111.479 212.936C111.119 213.072 110.732 213.141 110.318 213.141C109.635 213.141 109.109 212.975 108.742 212.643C108.375 212.307 108.191 211.879 108.191 211.359C108.191 211.055 108.26 210.777 108.396 210.527C108.537 210.273 108.719 210.07 108.941 209.918C109.168 209.766 109.422 209.65 109.703 209.572C109.91 209.518 110.223 209.465 110.641 209.414C111.492 209.312 112.119 209.191 112.521 209.051C112.525 208.906 112.527 208.814 112.527 208.775C112.527 208.346 112.428 208.043 112.229 207.867C111.959 207.629 111.559 207.51 111.027 207.51C110.531 207.51 110.164 207.598 109.926 207.773C109.691 207.945 109.518 208.252 109.404 208.693L108.373 208.553C108.467 208.111 108.621 207.756 108.836 207.486C109.051 207.213 109.361 207.004 109.768 206.859C110.174 206.711 110.645 206.637 111.18 206.637C111.711 206.637 112.143 206.699 112.475 206.824C112.807 206.949 113.051 207.107 113.207 207.299C113.363 207.486 113.473 207.725 113.535 208.014C113.57 208.193 113.588 208.518 113.588 208.986V210.393C113.588 211.373 113.609 211.994 113.652 212.256C113.699 212.514 113.789 212.762 113.922 213H112.82C112.711 212.781 112.641 212.525 112.609 212.232ZM112.521 209.877C112.139 210.033 111.564 210.166 110.799 210.275C110.365 210.338 110.059 210.408 109.879 210.486C109.699 210.564 109.561 210.68 109.463 210.832C109.365 210.98 109.316 211.146 109.316 211.33C109.316 211.611 109.422 211.846 109.633 212.033C109.848 212.221 110.16 212.314 110.57 212.314C110.977 212.314 111.338 212.227 111.654 212.051C111.971 211.871 112.203 211.627 112.352 211.318C112.465 211.08 112.521 210.729 112.521 210.264V209.877ZM117.531 212.057L117.684 212.988C117.387 213.051 117.121 213.082 116.887 213.082C116.504 213.082 116.207 213.021 115.996 212.9C115.785 212.779 115.637 212.621 115.551 212.426C115.465 212.227 115.422 211.811 115.422 211.178V207.598H114.648V206.777H115.422V205.236L116.471 204.604V206.777H117.531V207.598H116.471V211.236C116.471 211.537 116.488 211.73 116.523 211.816C116.562 211.902 116.623 211.971 116.705 212.021C116.791 212.072 116.912 212.098 117.068 212.098C117.186 212.098 117.34 212.084 117.531 212.057ZM122.828 210.996L123.918 211.131C123.746 211.768 123.428 212.262 122.963 212.613C122.498 212.965 121.904 213.141 121.182 213.141C120.271 213.141 119.549 212.861 119.014 212.303C118.482 211.74 118.217 210.953 118.217 209.941C118.217 208.895 118.486 208.082 119.025 207.504C119.564 206.926 120.264 206.637 121.123 206.637C121.955 206.637 122.635 206.92 123.162 207.486C123.689 208.053 123.953 208.85 123.953 209.877C123.953 209.939 123.951 210.033 123.947 210.158H119.307C119.346 210.842 119.539 211.365 119.887 211.729C120.234 212.092 120.668 212.273 121.188 212.273C121.574 212.273 121.904 212.172 122.178 211.969C122.451 211.766 122.668 211.441 122.828 210.996ZM119.365 209.291H122.84C122.793 208.768 122.66 208.375 122.441 208.113C122.105 207.707 121.67 207.504 121.135 207.504C120.65 207.504 120.242 207.666 119.91 207.99C119.582 208.314 119.4 208.748 119.365 209.291ZM125.547 213V211.799H126.748V213H125.547Z" fill="black" fill-opacity="0.5"/>
<rect x="0.5" y="0.5" width="289" height="236" rx="6.5" stroke="black" stroke-opacity="0.1"/>
</svg>
