<svg width="290" height="237" viewBox="0 0 290 237" fill="none" xmlns="http://www.w3.org/2000/svg">
<rect x="1" y="1" width="288" height="235" rx="6" fill="white"/>
<g clip-path="url(#clip0_7_1127)">
<path d="M34.6156 96.9999C33.8974 97.0034 33.1943 96.8277 32.5959 96.4951C31.9974 96.1625 31.5307 95.6881 31.2553 95.1325C30.9799 94.5768 30.9083 93.965 31.0496 93.3751C31.1908 92.7852 31.5386 92.244 32.0485 91.8203C66.433 63.4989 97.8528 51.2919 125.368 55.472C134.209 57.0174 142.631 59.924 150.207 64.0441C156.885 67.9761 164.626 70.4536 172.732 71.2532C195.981 72.6768 220.603 58.0769 245.84 27.9078C246.114 27.5802 246.463 27.3014 246.866 27.0873C247.27 26.8732 247.72 26.7282 248.19 26.6606C248.661 26.593 249.143 26.6042 249.608 26.6935C250.074 26.7828 250.513 26.9484 250.902 27.1808C251.681 27.6441 252.21 28.347 252.373 29.136C252.536 29.925 252.319 30.7358 251.77 31.3912C224.978 63.4383 198.222 78.8561 172.226 77.281C162.965 76.4625 154.093 73.7247 146.411 69.3146C139.614 65.5454 132.035 62.8743 124.066 61.4391C98.9736 57.562 69.8317 69.2541 37.2912 96.1216C36.9405 96.4134 36.5222 96.6419 36.062 96.7929C35.6018 96.944 35.1095 97.0145 34.6156 96.9999Z" fill="#08B54F"/>
<path d="M252.276 48.2932C251.353 48.2946 250.465 48.0006 249.793 47.4713C249.121 46.942 248.716 46.2174 248.66 45.4459L247.756 31.2095L230.763 31.997C230.288 32.0169 229.813 31.9583 229.366 31.8245C228.918 31.6906 228.506 31.4842 228.153 31.217C227.441 30.6773 227.015 29.9228 226.967 29.1194C226.919 28.3161 227.254 27.5297 227.898 26.9333C228.542 26.3368 229.442 25.9792 230.401 25.939L250.974 25C251.903 24.999 252.796 25.2973 253.469 25.833C254.142 26.3687 254.543 27.1008 254.59 27.8776L255.711 45.1127C255.735 45.523 255.66 45.9333 255.489 46.3185C255.318 46.7036 255.056 47.0557 254.718 47.3532C254.38 47.6507 253.973 47.8875 253.522 48.0491C253.071 48.2107 252.586 48.2937 252.095 48.2932H252.276Z" fill="#08B54F"/>
</g>
<path d="M38.4707 146.091V143.454C37.1523 143.288 36.0781 142.995 35.248 142.575C34.4277 142.146 33.7148 141.457 33.1094 140.51C32.5137 139.562 32.167 138.405 32.0693 137.038L34.7207 136.54C34.9258 137.956 35.2871 138.996 35.8047 139.66C36.5469 140.598 37.4355 141.12 38.4707 141.228V132.834C37.3867 132.629 36.2783 132.209 35.1455 131.574C34.3057 131.105 33.6562 130.456 33.1973 129.626C32.748 128.796 32.5234 127.854 32.5234 126.799C32.5234 124.924 33.1875 123.405 34.5156 122.243C35.4043 121.462 36.7227 120.983 38.4707 120.808V119.548H40.0234V120.808C41.5566 120.954 42.7725 121.403 43.6709 122.155C44.8232 123.112 45.5166 124.426 45.751 126.096L43.0264 126.506C42.8701 125.471 42.543 124.68 42.0449 124.133C41.5566 123.576 40.8828 123.21 40.0234 123.034V130.637C41.3516 130.969 42.2305 131.228 42.6602 131.413C43.4805 131.774 44.1494 132.214 44.667 132.731C45.1846 133.249 45.5801 133.864 45.8535 134.577C46.1367 135.29 46.2783 136.062 46.2783 136.892C46.2783 138.718 45.6973 140.241 44.5352 141.462C43.373 142.683 41.8691 143.337 40.0234 143.425V146.091H38.4707ZM38.4707 123.005C37.4453 123.161 36.6348 123.571 36.0391 124.235C35.4531 124.899 35.1602 125.686 35.1602 126.594C35.1602 127.492 35.4092 128.244 35.9072 128.85C36.415 129.455 37.2695 129.938 38.4707 130.3V123.005ZM40.0234 141.228C41.0488 141.101 41.8936 140.656 42.5576 139.895C43.2314 139.133 43.5684 138.19 43.5684 137.067C43.5684 136.11 43.3291 135.344 42.8506 134.768C42.3818 134.182 41.4395 133.659 40.0234 133.2V141.228Z" fill="black" fill-opacity="0.5"/>
<rect x="64" y="123" width="39" height="8" rx="4" fill="#D9D9D9"/>
<rect x="53" y="135.5" width="50" height="8" rx="4" fill="#D9D9D9"/>
<circle cx="57" cy="126.5" r="4" fill="#D9D9D9" fill-opacity="0.5"/>
<path d="M193.515 139.528V133.64H187.67V131.179H193.515V125.334H196.005V131.179H201.85V133.64H196.005V139.528H193.515Z" fill="black" fill-opacity="0.5"/>
<rect x="220" y="123" width="39" height="8" rx="4" fill="#D9D9D9"/>
<rect x="209" y="135.5" width="50" height="8" rx="4" fill="#D9D9D9"/>
<circle cx="213" cy="126.5" r="4" fill="#D9D9D9" fill-opacity="0.5"/>
<path d="M35.667 183V171.636H31.4219V170.115H41.6348V171.636H37.3721V183H35.667ZM43.1904 183V170.115H44.7725V174.738C45.5107 173.883 46.4424 173.455 47.5674 173.455C48.2588 173.455 48.8594 173.593 49.3691 173.868C49.8789 174.138 50.2422 174.513 50.459 174.993C50.6816 175.474 50.793 176.171 50.793 177.085V183H49.2109V177.085C49.2109 176.294 49.0381 175.72 48.6924 175.362C48.3525 174.999 47.8691 174.817 47.2422 174.817C46.7734 174.817 46.3311 174.94 45.915 175.187C45.5049 175.427 45.2119 175.755 45.0361 176.171C44.8604 176.587 44.7725 177.161 44.7725 177.894V183H43.1904ZM59.5996 179.994L61.2344 180.196C60.9766 181.151 60.499 181.893 59.8018 182.42C59.1045 182.947 58.2139 183.211 57.1299 183.211C55.7646 183.211 54.6807 182.792 53.8779 181.954C53.0811 181.11 52.6826 179.93 52.6826 178.412C52.6826 176.842 53.0869 175.623 53.8955 174.756C54.7041 173.889 55.7529 173.455 57.042 173.455C58.29 173.455 59.3096 173.88 60.1006 174.729C60.8916 175.579 61.2871 176.774 61.2871 178.315C61.2871 178.409 61.2842 178.55 61.2783 178.737H54.3174C54.376 179.763 54.666 180.548 55.1875 181.093C55.709 181.638 56.3594 181.91 57.1387 181.91C57.7188 181.91 58.2139 181.758 58.624 181.453C59.0342 181.148 59.3594 180.662 59.5996 179.994ZM54.4053 177.437H59.6172C59.5469 176.651 59.3477 176.062 59.0195 175.67C58.5156 175.061 57.8623 174.756 57.0596 174.756C56.333 174.756 55.7207 174.999 55.2227 175.485C54.7305 175.972 54.458 176.622 54.4053 177.437ZM71.6934 181.585L71.9219 182.982C71.4766 183.076 71.0781 183.123 70.7266 183.123C70.1523 183.123 69.707 183.032 69.3906 182.851C69.0742 182.669 68.8516 182.432 68.7227 182.139C68.5938 181.84 68.5293 181.216 68.5293 180.267V174.896H67.3691V173.666H68.5293V171.354L70.1025 170.405V173.666H71.6934V174.896H70.1025V180.354C70.1025 180.806 70.1289 181.096 70.1816 181.225C70.2402 181.354 70.3311 181.456 70.4541 181.532C70.583 181.608 70.7646 181.646 70.999 181.646C71.1748 181.646 71.4062 181.626 71.6934 181.585ZM72.6602 178.333C72.6602 176.604 73.1406 175.324 74.1016 174.492C74.9043 173.801 75.8828 173.455 77.0371 173.455C78.3203 173.455 79.3691 173.877 80.1836 174.721C80.998 175.559 81.4053 176.719 81.4053 178.201C81.4053 179.402 81.2236 180.349 80.8604 181.04C80.5029 181.726 79.9785 182.259 79.2871 182.64C78.6016 183.021 77.8516 183.211 77.0371 183.211C75.7305 183.211 74.6729 182.792 73.8643 181.954C73.0615 181.116 72.6602 179.909 72.6602 178.333ZM74.2861 178.333C74.2861 179.528 74.5469 180.425 75.0684 181.022C75.5898 181.614 76.2461 181.91 77.0371 181.91C77.8223 181.91 78.4756 181.611 78.9971 181.014C79.5186 180.416 79.7793 179.505 79.7793 178.28C79.7793 177.126 79.5156 176.253 78.9883 175.661C78.4668 175.063 77.8164 174.765 77.0371 174.765C76.2461 174.765 75.5898 175.061 75.0684 175.652C74.5469 176.244 74.2861 177.138 74.2861 178.333ZM86.7227 181.585L86.9512 182.982C86.5059 183.076 86.1074 183.123 85.7559 183.123C85.1816 183.123 84.7363 183.032 84.4199 182.851C84.1035 182.669 83.8809 182.432 83.752 182.139C83.623 181.84 83.5586 181.216 83.5586 180.267V174.896H82.3984V173.666H83.5586V171.354L85.1318 170.405V173.666H86.7227V174.896H85.1318V180.354C85.1318 180.806 85.1582 181.096 85.2109 181.225C85.2695 181.354 85.3604 181.456 85.4834 181.532C85.6123 181.608 85.7939 181.646 86.0283 181.646C86.2041 181.646 86.4355 181.626 86.7227 181.585ZM94.3691 181.849C93.7832 182.347 93.2178 182.698 92.6729 182.903C92.1338 183.108 91.5537 183.211 90.9326 183.211C89.9072 183.211 89.1191 182.962 88.5684 182.464C88.0176 181.96 87.7422 181.318 87.7422 180.539C87.7422 180.082 87.8447 179.666 88.0498 179.291C88.2607 178.91 88.5332 178.605 88.8672 178.377C89.207 178.148 89.5879 177.976 90.0098 177.858C90.3203 177.776 90.7891 177.697 91.416 177.621C92.6934 177.469 93.6338 177.287 94.2373 177.076C94.2432 176.859 94.2461 176.722 94.2461 176.663C94.2461 176.019 94.0967 175.564 93.7979 175.301C93.3936 174.943 92.793 174.765 91.9961 174.765C91.252 174.765 90.7012 174.896 90.3438 175.16C89.9922 175.418 89.7314 175.878 89.5615 176.54L88.0146 176.329C88.1553 175.667 88.3867 175.134 88.709 174.729C89.0312 174.319 89.4971 174.006 90.1064 173.789C90.7158 173.566 91.4219 173.455 92.2246 173.455C93.0215 173.455 93.6689 173.549 94.167 173.736C94.665 173.924 95.0312 174.161 95.2656 174.448C95.5 174.729 95.6641 175.087 95.7578 175.521C95.8105 175.79 95.8369 176.276 95.8369 176.979V179.089C95.8369 180.56 95.8691 181.491 95.9336 181.884C96.0039 182.271 96.1387 182.643 96.3379 183H94.6855C94.5215 182.672 94.416 182.288 94.3691 181.849ZM94.2373 178.315C93.6631 178.55 92.8018 178.749 91.6533 178.913C91.0029 179.007 90.543 179.112 90.2734 179.229C90.0039 179.347 89.7959 179.52 89.6494 179.748C89.5029 179.971 89.4297 180.22 89.4297 180.495C89.4297 180.917 89.5879 181.269 89.9043 181.55C90.2266 181.831 90.6953 181.972 91.3105 181.972C91.9199 181.972 92.4619 181.84 92.9365 181.576C93.4111 181.307 93.7598 180.94 93.9824 180.478C94.1523 180.12 94.2373 179.593 94.2373 178.896V178.315ZM98.2627 183V170.115H99.8447V183H98.2627ZM107.315 183V173.666H108.739V174.993C109.425 173.968 110.415 173.455 111.71 173.455C112.272 173.455 112.788 173.558 113.257 173.763C113.731 173.962 114.086 174.226 114.32 174.554C114.555 174.882 114.719 175.271 114.812 175.723C114.871 176.016 114.9 176.528 114.9 177.261V183H113.318V177.322C113.318 176.678 113.257 176.197 113.134 175.881C113.011 175.559 112.791 175.304 112.475 175.116C112.164 174.923 111.798 174.826 111.376 174.826C110.702 174.826 110.119 175.04 109.627 175.468C109.141 175.896 108.897 176.707 108.897 177.902V183H107.315ZM123.452 183V181.629C122.726 182.684 121.738 183.211 120.49 183.211C119.939 183.211 119.424 183.105 118.943 182.895C118.469 182.684 118.114 182.42 117.88 182.104C117.651 181.781 117.49 181.389 117.396 180.926C117.332 180.615 117.3 180.123 117.3 179.449V173.666H118.882V178.843C118.882 179.669 118.914 180.226 118.979 180.513C119.078 180.929 119.289 181.257 119.611 181.497C119.934 181.731 120.332 181.849 120.807 181.849C121.281 181.849 121.727 181.729 122.143 181.488C122.559 181.242 122.852 180.911 123.021 180.495C123.197 180.073 123.285 179.464 123.285 178.667V173.666H124.867V183H123.452ZM127.354 183V173.666H128.77V174.976C129.062 174.519 129.452 174.152 129.938 173.877C130.425 173.596 130.979 173.455 131.6 173.455C132.291 173.455 132.856 173.599 133.296 173.886C133.741 174.173 134.055 174.574 134.236 175.09C134.975 174 135.936 173.455 137.119 173.455C138.045 173.455 138.757 173.713 139.255 174.229C139.753 174.738 140.002 175.526 140.002 176.593V183H138.429V177.12C138.429 176.487 138.376 176.033 138.271 175.758C138.171 175.477 137.986 175.251 137.717 175.081C137.447 174.911 137.131 174.826 136.768 174.826C136.111 174.826 135.566 175.046 135.133 175.485C134.699 175.919 134.482 176.616 134.482 177.577V183H132.9V176.936C132.9 176.232 132.771 175.705 132.514 175.354C132.256 175.002 131.834 174.826 131.248 174.826C130.803 174.826 130.39 174.943 130.009 175.178C129.634 175.412 129.361 175.755 129.191 176.206C129.021 176.657 128.937 177.308 128.937 178.157V183H127.354ZM143.808 183H142.34V170.115H143.922V174.712C144.59 173.874 145.442 173.455 146.479 173.455C147.054 173.455 147.596 173.572 148.105 173.807C148.621 174.035 149.043 174.36 149.371 174.782C149.705 175.198 149.966 175.702 150.153 176.294C150.341 176.886 150.435 177.519 150.435 178.192C150.435 179.792 150.039 181.028 149.248 181.901C148.457 182.774 147.508 183.211 146.4 183.211C145.299 183.211 144.435 182.751 143.808 181.831V183ZM143.79 178.263C143.79 179.382 143.942 180.19 144.247 180.688C144.745 181.503 145.419 181.91 146.269 181.91C146.96 181.91 147.558 181.611 148.062 181.014C148.565 180.41 148.817 179.514 148.817 178.324C148.817 177.105 148.574 176.206 148.088 175.626C147.607 175.046 147.024 174.756 146.339 174.756C145.647 174.756 145.05 175.058 144.546 175.661C144.042 176.259 143.79 177.126 143.79 178.263ZM158.758 179.994L160.393 180.196C160.135 181.151 159.657 181.893 158.96 182.42C158.263 182.947 157.372 183.211 156.288 183.211C154.923 183.211 153.839 182.792 153.036 181.954C152.239 181.11 151.841 179.93 151.841 178.412C151.841 176.842 152.245 175.623 153.054 174.756C153.862 173.889 154.911 173.455 156.2 173.455C157.448 173.455 158.468 173.88 159.259 174.729C160.05 175.579 160.445 176.774 160.445 178.315C160.445 178.409 160.442 178.55 160.437 178.737H153.476C153.534 179.763 153.824 180.548 154.346 181.093C154.867 181.638 155.518 181.91 156.297 181.91C156.877 181.91 157.372 181.758 157.782 181.453C158.192 181.148 158.518 180.662 158.758 179.994ZM153.563 177.437H158.775C158.705 176.651 158.506 176.062 158.178 175.67C157.674 175.061 157.021 174.756 156.218 174.756C155.491 174.756 154.879 174.999 154.381 175.485C153.889 175.972 153.616 176.622 153.563 177.437ZM162.37 183V173.666H163.794V175.081C164.157 174.419 164.491 173.982 164.796 173.771C165.106 173.561 165.446 173.455 165.815 173.455C166.349 173.455 166.891 173.625 167.441 173.965L166.896 175.433C166.51 175.204 166.123 175.09 165.736 175.09C165.391 175.09 165.08 175.195 164.805 175.406C164.529 175.611 164.333 175.898 164.216 176.268C164.04 176.83 163.952 177.445 163.952 178.113V183H162.37ZM173.594 183V170.115H178.454C179.31 170.115 179.963 170.156 180.414 170.238C181.047 170.344 181.577 170.546 182.005 170.845C182.433 171.138 182.775 171.551 183.033 172.084C183.297 172.617 183.429 173.203 183.429 173.842C183.429 174.938 183.08 175.866 182.383 176.628C181.686 177.384 180.426 177.762 178.604 177.762H175.299V183H173.594ZM175.299 176.241H178.63C179.731 176.241 180.514 176.036 180.977 175.626C181.439 175.216 181.671 174.639 181.671 173.895C181.671 173.355 181.533 172.896 181.258 172.515C180.988 172.128 180.631 171.873 180.186 171.75C179.898 171.674 179.368 171.636 178.595 171.636H175.299V176.241ZM184.809 178.333C184.809 176.604 185.289 175.324 186.25 174.492C187.053 173.801 188.031 173.455 189.186 173.455C190.469 173.455 191.518 173.877 192.332 174.721C193.146 175.559 193.554 176.719 193.554 178.201C193.554 179.402 193.372 180.349 193.009 181.04C192.651 181.726 192.127 182.259 191.436 182.64C190.75 183.021 190 183.211 189.186 183.211C187.879 183.211 186.821 182.792 186.013 181.954C185.21 181.116 184.809 179.909 184.809 178.333ZM186.435 178.333C186.435 179.528 186.695 180.425 187.217 181.022C187.738 181.614 188.395 181.91 189.186 181.91C189.971 181.91 190.624 181.611 191.146 181.014C191.667 180.416 191.928 179.505 191.928 178.28C191.928 177.126 191.664 176.253 191.137 175.661C190.615 175.063 189.965 174.765 189.186 174.765C188.395 174.765 187.738 175.061 187.217 175.652C186.695 176.244 186.435 177.138 186.435 178.333ZM195.417 186.577V173.666H196.858V174.879C197.198 174.404 197.582 174.05 198.01 173.815C198.438 173.575 198.956 173.455 199.565 173.455C200.362 173.455 201.065 173.66 201.675 174.07C202.284 174.48 202.744 175.061 203.055 175.811C203.365 176.555 203.521 177.372 203.521 178.263C203.521 179.218 203.348 180.079 203.002 180.847C202.662 181.608 202.164 182.194 201.508 182.604C200.857 183.009 200.172 183.211 199.451 183.211C198.924 183.211 198.449 183.1 198.027 182.877C197.611 182.654 197.269 182.373 196.999 182.033V186.577H195.417ZM196.85 178.386C196.85 179.587 197.093 180.475 197.579 181.049C198.065 181.623 198.654 181.91 199.346 181.91C200.049 181.91 200.649 181.614 201.147 181.022C201.651 180.425 201.903 179.502 201.903 178.254C201.903 177.064 201.657 176.174 201.165 175.582C200.679 174.99 200.096 174.694 199.416 174.694C198.742 174.694 198.145 175.011 197.623 175.644C197.107 176.271 196.85 177.185 196.85 178.386ZM211.554 183V181.629C210.827 182.684 209.84 183.211 208.592 183.211C208.041 183.211 207.525 183.105 207.045 182.895C206.57 182.684 206.216 182.42 205.981 182.104C205.753 181.781 205.592 181.389 205.498 180.926C205.434 180.615 205.401 180.123 205.401 179.449V173.666H206.983V178.843C206.983 179.669 207.016 180.226 207.08 180.513C207.18 180.929 207.391 181.257 207.713 181.497C208.035 181.731 208.434 181.849 208.908 181.849C209.383 181.849 209.828 181.729 210.244 181.488C210.66 181.242 210.953 180.911 211.123 180.495C211.299 180.073 211.387 179.464 211.387 178.667V173.666H212.969V183H211.554ZM215.421 183V170.115H217.003V183H215.421ZM225.555 181.849C224.969 182.347 224.403 182.698 223.858 182.903C223.319 183.108 222.739 183.211 222.118 183.211C221.093 183.211 220.305 182.962 219.754 182.464C219.203 181.96 218.928 181.318 218.928 180.539C218.928 180.082 219.03 179.666 219.235 179.291C219.446 178.91 219.719 178.605 220.053 178.377C220.393 178.148 220.773 177.976 221.195 177.858C221.506 177.776 221.975 177.697 222.602 177.621C223.879 177.469 224.819 177.287 225.423 177.076C225.429 176.859 225.432 176.722 225.432 176.663C225.432 176.019 225.282 175.564 224.983 175.301C224.579 174.943 223.979 174.765 223.182 174.765C222.438 174.765 221.887 174.896 221.529 175.16C221.178 175.418 220.917 175.878 220.747 176.54L219.2 176.329C219.341 175.667 219.572 175.134 219.895 174.729C220.217 174.319 220.683 174.006 221.292 173.789C221.901 173.566 222.607 173.455 223.41 173.455C224.207 173.455 224.854 173.549 225.353 173.736C225.851 173.924 226.217 174.161 226.451 174.448C226.686 174.729 226.85 175.087 226.943 175.521C226.996 175.79 227.022 176.276 227.022 176.979V179.089C227.022 180.56 227.055 181.491 227.119 181.884C227.189 182.271 227.324 182.643 227.523 183H225.871C225.707 182.672 225.602 182.288 225.555 181.849ZM225.423 178.315C224.849 178.55 223.987 178.749 222.839 178.913C222.188 179.007 221.729 179.112 221.459 179.229C221.189 179.347 220.981 179.52 220.835 179.748C220.688 179.971 220.615 180.22 220.615 180.495C220.615 180.917 220.773 181.269 221.09 181.55C221.412 181.831 221.881 181.972 222.496 181.972C223.105 181.972 223.647 181.84 224.122 181.576C224.597 181.307 224.945 180.94 225.168 180.478C225.338 180.12 225.423 179.593 225.423 178.896V178.315ZM232.938 181.585L233.166 182.982C232.721 183.076 232.322 183.123 231.971 183.123C231.396 183.123 230.951 183.032 230.635 182.851C230.318 182.669 230.096 182.432 229.967 182.139C229.838 181.84 229.773 181.216 229.773 180.267V174.896H228.613V173.666H229.773V171.354L231.347 170.405V173.666H232.938V174.896H231.347V180.354C231.347 180.806 231.373 181.096 231.426 181.225C231.484 181.354 231.575 181.456 231.698 181.532C231.827 181.608 232.009 181.646 232.243 181.646C232.419 181.646 232.65 181.626 232.938 181.585ZM234.502 171.935V170.115H236.084V171.935H234.502ZM234.502 183V173.666H236.084V183H234.502ZM237.912 178.333C237.912 176.604 238.393 175.324 239.354 174.492C240.156 173.801 241.135 173.455 242.289 173.455C243.572 173.455 244.621 173.877 245.436 174.721C246.25 175.559 246.657 176.719 246.657 178.201C246.657 179.402 246.476 180.349 246.112 181.04C245.755 181.726 245.23 182.259 244.539 182.64C243.854 183.021 243.104 183.211 242.289 183.211C240.982 183.211 239.925 182.792 239.116 181.954C238.313 181.116 237.912 179.909 237.912 178.333ZM239.538 178.333C239.538 179.528 239.799 180.425 240.32 181.022C240.842 181.614 241.498 181.91 242.289 181.91C243.074 181.91 243.728 181.611 244.249 181.014C244.771 180.416 245.031 179.505 245.031 178.28C245.031 177.126 244.768 176.253 244.24 175.661C243.719 175.063 243.068 174.765 242.289 174.765C241.498 174.765 240.842 175.061 240.32 175.652C239.799 176.244 239.538 177.138 239.538 178.333ZM248.521 183V173.666H249.944V174.993C250.63 173.968 251.62 173.455 252.915 173.455C253.478 173.455 253.993 173.558 254.462 173.763C254.937 173.962 255.291 174.226 255.525 174.554C255.76 174.882 255.924 175.271 256.018 175.723C256.076 176.016 256.105 176.528 256.105 177.261V183H254.523V177.322C254.523 176.678 254.462 176.197 254.339 175.881C254.216 175.559 253.996 175.304 253.68 175.116C253.369 174.923 253.003 174.826 252.581 174.826C251.907 174.826 251.324 175.04 250.832 175.468C250.346 175.896 250.103 176.707 250.103 177.902V183H248.521ZM30.9736 206L35.9219 193.115H37.7588L43.0322 206H41.0898L39.5869 202.098H34.1992L32.7842 206H30.9736ZM34.6914 200.709H39.0596L37.7148 197.141C37.3047 196.057 37 195.166 36.8008 194.469C36.6367 195.295 36.4053 196.115 36.1064 196.93L34.6914 200.709ZM50.2832 202.581L51.8389 202.783C51.6689 203.855 51.2324 204.696 50.5293 205.306C49.832 205.909 48.9736 206.211 47.9541 206.211C46.6768 206.211 45.6484 205.795 44.8691 204.963C44.0957 204.125 43.709 202.927 43.709 201.368C43.709 200.36 43.876 199.479 44.21 198.723C44.5439 197.967 45.0508 197.401 45.7305 197.026C46.416 196.646 47.1602 196.455 47.9629 196.455C48.9766 196.455 49.8057 196.713 50.4502 197.229C51.0947 197.738 51.5078 198.465 51.6895 199.408L50.1514 199.646C50.0049 199.019 49.7441 198.547 49.3691 198.23C49 197.914 48.5518 197.756 48.0244 197.756C47.2275 197.756 46.5801 198.043 46.082 198.617C45.584 199.186 45.335 200.088 45.335 201.324C45.335 202.578 45.5752 203.489 46.0557 204.058C46.5361 204.626 47.1631 204.91 47.9365 204.91C48.5576 204.91 49.0762 204.72 49.4922 204.339C49.9082 203.958 50.1719 203.372 50.2832 202.581ZM59.2832 202.581L60.8389 202.783C60.6689 203.855 60.2324 204.696 59.5293 205.306C58.832 205.909 57.9736 206.211 56.9541 206.211C55.6768 206.211 54.6484 205.795 53.8691 204.963C53.0957 204.125 52.709 202.927 52.709 201.368C52.709 200.36 52.876 199.479 53.21 198.723C53.5439 197.967 54.0508 197.401 54.7305 197.026C55.416 196.646 56.1602 196.455 56.9629 196.455C57.9766 196.455 58.8057 196.713 59.4502 197.229C60.0947 197.738 60.5078 198.465 60.6895 199.408L59.1514 199.646C59.0049 199.019 58.7441 198.547 58.3691 198.23C58 197.914 57.5518 197.756 57.0244 197.756C56.2275 197.756 55.5801 198.043 55.082 198.617C54.584 199.186 54.335 200.088 54.335 201.324C54.335 202.578 54.5752 203.489 55.0557 204.058C55.5361 204.626 56.1631 204.91 56.9365 204.91C57.5576 204.91 58.0762 204.72 58.4922 204.339C58.9082 203.958 59.1719 203.372 59.2832 202.581ZM61.6035 201.333C61.6035 199.604 62.084 198.324 63.0449 197.492C63.8477 196.801 64.8262 196.455 65.9805 196.455C67.2637 196.455 68.3125 196.877 69.127 197.721C69.9414 198.559 70.3486 199.719 70.3486 201.201C70.3486 202.402 70.167 203.349 69.8037 204.04C69.4463 204.726 68.9219 205.259 68.2305 205.64C67.5449 206.021 66.7949 206.211 65.9805 206.211C64.6738 206.211 63.6162 205.792 62.8076 204.954C62.0049 204.116 61.6035 202.909 61.6035 201.333ZM63.2295 201.333C63.2295 202.528 63.4902 203.425 64.0117 204.022C64.5332 204.614 65.1895 204.91 65.9805 204.91C66.7656 204.91 67.4189 204.611 67.9404 204.014C68.4619 203.416 68.7227 202.505 68.7227 201.28C68.7227 200.126 68.459 199.253 67.9316 198.661C67.4102 198.063 66.7598 197.765 65.9805 197.765C65.1895 197.765 64.5332 198.061 64.0117 198.652C63.4902 199.244 63.2295 200.138 63.2295 201.333ZM72.1943 206V196.666H73.6182V198.081C73.9814 197.419 74.3154 196.982 74.6201 196.771C74.9307 196.561 75.2705 196.455 75.6396 196.455C76.1729 196.455 76.7148 196.625 77.2656 196.965L76.7207 198.433C76.334 198.204 75.9473 198.09 75.5605 198.09C75.2148 198.09 74.9043 198.195 74.6289 198.406C74.3535 198.611 74.1572 198.898 74.04 199.268C73.8643 199.83 73.7764 200.445 73.7764 201.113V206H72.1943ZM84.2617 206V204.822C83.6699 205.748 82.7998 206.211 81.6514 206.211C80.9072 206.211 80.2217 206.006 79.5947 205.596C78.9736 205.186 78.4902 204.614 78.1445 203.882C77.8047 203.144 77.6348 202.297 77.6348 201.342C77.6348 200.41 77.79 199.566 78.1006 198.811C78.4111 198.049 78.877 197.466 79.498 197.062C80.1191 196.657 80.8135 196.455 81.5811 196.455C82.1436 196.455 82.6445 196.575 83.084 196.815C83.5234 197.05 83.8809 197.357 84.1562 197.738V193.115H85.7295V206H84.2617ZM79.2607 201.342C79.2607 202.537 79.5127 203.431 80.0166 204.022C80.5205 204.614 81.1152 204.91 81.8008 204.91C82.4922 204.91 83.0781 204.629 83.5586 204.066C84.0449 203.498 84.2881 202.634 84.2881 201.474C84.2881 200.196 84.042 199.259 83.5498 198.661C83.0576 198.063 82.4512 197.765 81.7305 197.765C81.0273 197.765 80.4385 198.052 79.9639 198.626C79.4951 199.2 79.2607 200.105 79.2607 201.342ZM88.2344 194.935V193.115H89.8164V194.935H88.2344ZM88.2344 206V196.666H89.8164V206H88.2344ZM92.2334 206V196.666H93.6572V197.993C94.3428 196.968 95.333 196.455 96.6279 196.455C97.1904 196.455 97.7061 196.558 98.1748 196.763C98.6494 196.962 99.0039 197.226 99.2383 197.554C99.4727 197.882 99.6367 198.271 99.7305 198.723C99.7891 199.016 99.8184 199.528 99.8184 200.261V206H98.2363V200.322C98.2363 199.678 98.1748 199.197 98.0518 198.881C97.9287 198.559 97.709 198.304 97.3926 198.116C97.082 197.923 96.7158 197.826 96.2939 197.826C95.6201 197.826 95.0371 198.04 94.5449 198.468C94.0586 198.896 93.8154 199.707 93.8154 200.902V206H92.2334ZM101.963 206.773L103.501 207.002C103.565 207.477 103.744 207.822 104.037 208.039C104.43 208.332 104.966 208.479 105.646 208.479C106.378 208.479 106.943 208.332 107.342 208.039C107.74 207.746 108.01 207.336 108.15 206.809C108.232 206.486 108.271 205.81 108.265 204.778C107.573 205.593 106.712 206 105.681 206C104.397 206 103.404 205.537 102.701 204.611C101.998 203.686 101.646 202.575 101.646 201.28C101.646 200.39 101.808 199.569 102.13 198.819C102.452 198.063 102.918 197.48 103.527 197.07C104.143 196.66 104.863 196.455 105.689 196.455C106.791 196.455 107.699 196.9 108.414 197.791V196.666H109.873V204.734C109.873 206.188 109.724 207.216 109.425 207.819C109.132 208.429 108.663 208.909 108.019 209.261C107.38 209.612 106.592 209.788 105.654 209.788C104.541 209.788 103.642 209.536 102.956 209.032C102.271 208.534 101.939 207.781 101.963 206.773ZM103.272 201.166C103.272 202.391 103.516 203.284 104.002 203.847C104.488 204.409 105.098 204.69 105.83 204.69C106.557 204.69 107.166 204.412 107.658 203.855C108.15 203.293 108.396 202.414 108.396 201.219C108.396 200.076 108.142 199.215 107.632 198.635C107.128 198.055 106.519 197.765 105.804 197.765C105.101 197.765 104.503 198.052 104.011 198.626C103.519 199.194 103.272 200.041 103.272 201.166ZM120.736 204.585L120.965 205.982C120.52 206.076 120.121 206.123 119.77 206.123C119.195 206.123 118.75 206.032 118.434 205.851C118.117 205.669 117.895 205.432 117.766 205.139C117.637 204.84 117.572 204.216 117.572 203.267V197.896H116.412V196.666H117.572V194.354L119.146 193.405V196.666H120.736V197.896H119.146V203.354C119.146 203.806 119.172 204.096 119.225 204.225C119.283 204.354 119.374 204.456 119.497 204.532C119.626 204.608 119.808 204.646 120.042 204.646C120.218 204.646 120.449 204.626 120.736 204.585ZM121.703 201.333C121.703 199.604 122.184 198.324 123.145 197.492C123.947 196.801 124.926 196.455 126.08 196.455C127.363 196.455 128.412 196.877 129.227 197.721C130.041 198.559 130.448 199.719 130.448 201.201C130.448 202.402 130.267 203.349 129.903 204.04C129.546 204.726 129.021 205.259 128.33 205.64C127.645 206.021 126.895 206.211 126.08 206.211C124.773 206.211 123.716 205.792 122.907 204.954C122.104 204.116 121.703 202.909 121.703 201.333ZM123.329 201.333C123.329 202.528 123.59 203.425 124.111 204.022C124.633 204.614 125.289 204.91 126.08 204.91C126.865 204.91 127.519 204.611 128.04 204.014C128.562 203.416 128.822 202.505 128.822 201.28C128.822 200.126 128.559 199.253 128.031 198.661C127.51 198.063 126.859 197.765 126.08 197.765C125.289 197.765 124.633 198.061 124.111 198.652C123.59 199.244 123.329 200.138 123.329 201.333ZM139.773 206L136.354 193.115H138.104L140.063 201.562C140.274 202.446 140.456 203.325 140.608 204.198C140.937 202.821 141.13 202.027 141.188 201.816L143.641 193.115H145.697L147.543 199.637C148.006 201.254 148.34 202.774 148.545 204.198C148.709 203.384 148.923 202.449 149.187 201.395L151.208 193.115H152.922L149.389 206H147.745L145.029 196.183C144.801 195.362 144.666 194.858 144.625 194.671C144.49 195.263 144.364 195.767 144.247 196.183L141.514 206H139.773ZM154.574 206V193.115H156.279V198.406H162.977V193.115H164.682V206H162.977V199.927H156.279V206H154.574ZM167.011 199.725C167.011 197.586 167.585 195.913 168.733 194.706C169.882 193.493 171.364 192.887 173.181 192.887C174.37 192.887 175.442 193.171 176.397 193.739C177.353 194.308 178.079 195.102 178.577 196.121C179.081 197.135 179.333 198.286 179.333 199.575C179.333 200.882 179.069 202.051 178.542 203.082C178.015 204.113 177.268 204.896 176.301 205.429C175.334 205.956 174.291 206.22 173.172 206.22C171.959 206.22 170.875 205.927 169.92 205.341C168.965 204.755 168.241 203.955 167.749 202.941C167.257 201.928 167.011 200.855 167.011 199.725ZM168.769 199.751C168.769 201.304 169.185 202.528 170.017 203.425C170.854 204.315 171.903 204.761 173.163 204.761C174.446 204.761 175.501 204.31 176.327 203.407C177.159 202.505 177.575 201.225 177.575 199.566C177.575 198.518 177.396 197.604 177.039 196.824C176.688 196.039 176.169 195.433 175.483 195.005C174.804 194.571 174.039 194.354 173.189 194.354C171.982 194.354 170.942 194.771 170.069 195.603C169.202 196.429 168.769 197.812 168.769 199.751ZM181.776 198.468V196.666H183.578V198.468H181.776ZM181.776 206V204.198H183.578V206H181.776Z" fill="black" fill-opacity="0.8"/>
<rect x="0.5" y="0.5" width="289" height="236" rx="6.5" stroke="black" stroke-opacity="0.1"/>
<defs>
<clipPath id="clip0_7_1127">
<rect width="225" height="72" fill="white" transform="translate(31 25)"/>
</clipPath>
</defs>
</svg>
